<?xml version="1.0" encoding="UTF-8" standalone="no"?>
<!DOCTYPE svg PUBLIC "-//W3C//DTD SVG 20010904//EN" "http://www.w3.org/TR/2001/REC-SVG-20010904/DTD/svg10.dtd">
<svg version="1.0" xmlns="http://www.w3.org/2000/svg" width="596.000000pt" height="195.000000pt" viewBox="0 0 596.000000 195.000000" preserveAspectRatio="xMidYMid meet">
<metadata>
Created by potrace 1.16, written by Peter Selinger 2001-2019
</metadata>
<g transform="translate(0.000000,195.000000) scale(0.100000,-0.100000)" fill="#000000" stroke="none">
<path d="M2483 1624 c-57 -60 -83 -123 -83 -201 0 -54 18 -90 64 -131 50 -43 94 -53 211 -45 l100 6 44 44 44 43 -6 60 c-7 79 -49 155 -109 196 -38 26 -179 84 -204 84 -5 0 -32 -25 -61 -56z m59 24 c-7 -7 -12 -21 -11 -32 0 -20 1 -20 11 1 9 19 17 22 52 18 133 -13 230 -105 243 -231 7 -61 -9 -94 -55 -117 -37 -19 -194 -30 -243 -17 -51 14 -114 76 -123 121 -7 39 15 135 41 177 23 37 75 92 87 92 6 0 5 -5 -2 -12z"/>
<path d="M2568 1563 c-25 -6 -30 -37 -19 -123 5 -41 7 -78 5 -82 -8 -12 39 -27 67 -21 44 8 73 37 65 66 -3 14 -15 29 -27 32 -19 6 -19 8 -5 24 23 25 20 54 -9 85 -23 25 -39 29 -77 19z m62 -33 c24 -24 25 -38 3 -62 -26 -29 -53 -23 -53 11 0 16 -6 31 -12 34 -10 3 -10 7 1 20 18 22 37 21 61 -3z m21 -110 c38 -21 17 -55 -39 -66 -32 -6 -32 -6 -32 35 0 37 2 41 26 41 14 0 34 -5 45 -10z"/>
<path d="M2973 1375 c2 -5 77 -15 168 -22 240 -17 348 -30 420 -52 35 -11 118 -29 184 -41 66 -11 154 -29 195 -40 41 -10 100 -21 130 -25 30 -4 94 -16 142 -27 62 -14 113 -19 177 -16 63 2 92 -1 95 -9 5 -13 -81 -46 -95 -37 -5 3 -9 -2 -9 -12 0 -13 6 -15 29 -11 51 10 101 35 101 50 0 20 -80 108 -91 101 -5 -3 -3 -15 6 -27 8 -12 15 -25 15 -29 0 -15 -135 -8 -235 12 -55 11 -145 28 -200 39 -55 11 -129 26 -165 34 -36 8 -89 18 -117 22 -29 4 -92 18 -140 31 -112 31 -617 80 -610 59z"/>
<path d="M2230 1340 c0 -5 11 -10 25 -10 14 0 25 -4 25 -9 0 -20 -54 -39 -680 -240 -102 -32 -223 -73 -270 -91 -182 -68 -215 -78 -221 -68 -4 5 -9 3 -12 -6 -11 -29 38 -18 201 43 86 32 247 87 357 120 351 109 569 182 613 207 37 22 43 23 48 9 7 -18 -22 -55 -43 -55 -7 0 -13 -4 -13 -10 0 -16 26 -12 51 9 16 13 23 30 25 58 2 40 1 41 -35 47 -52 8 -71 7 -71 -4z"/>
<path d="M4722 1259 c-55 -28 -98 -81 -117 -145 -26 -91 -14 -154 37 -202 41 -38 160 -74 249 -75 72 -2 79 0 115 29 49 39 86 123 80 179 -7 54 -44 144 -72 175 -19 20 -35 25 -91 28 -38 3 -77 11 -88 18 -28 20 -63 17 -113 -7z m112 -8 c4 -5 -11 -12 -32 -16 -42 -7 -70 -21 -60 -30 3 -4 30 1 59 9 70 21 158 21 188 0 31 -22 81 -134 81 -181 -1 -75 -63 -163 -126 -179 -35 -9 -161 12 -228 37 -96 37 -126 109 -95 224 13 46 93 131 131 138 42 8 77 7 82 -2z"/>
<path d="M4763 1153 c-27 -5 -34 -31 -16 -59 8 -12 16 -45 20 -73 7 -65 21 -77 70 -60 21 6 47 18 59 26 29 18 58 86 50 116 -11 44 -95 67 -183 50z m132 -27 c26 -11 35 -21 35 -38 0 -32 -35 -87 -63 -97 -64 -24 -62 -25 -76 31 -8 29 -20 65 -27 80 -12 24 -12 27 4 31 37 10 94 6 127 -7z"/>
<path d="M2538 1176 c-23 -47 -20 -68 7 -46 9 7 17 11 18 9 10 -12 27 -118 27 -161 0 -57 26 -156 46 -178 18 -19 18 -3 -2 51 -9 24 -19 87 -24 139 -4 52 -10 102 -12 110 -3 8 -3 12 -1 8 11 -18 25 -6 18 15 -4 12 -10 38 -14 57 -10 53 -36 51 -63 -4z"/>
<path d="M755 921 c-34 -27 -68 -59 -76 -72 -44 -68 -51 -218 -13 -260 17 -19 27 -21 81 -16 42 3 77 13 107 31 54 32 113 98 125 142 11 41 -3 108 -32 151 -24 35 -84 73 -113 73 -11 -1 -46 -22 -79 -49z m136 8 c48 -34 74 -98 70 -176 -2 -34 -95 -129 -144 -147 -66 -23 -111 -28 -131 -13 -24 17 -37 91 -26 147 18 93 51 142 130 189 44 26 64 26 101 0z"/>
<path d="M806 838 c-20 -30 -52 -106 -60 -140 -10 -43 12 -34 30 12 9 22 20 40 24 40 5 0 15 3 23 6 12 4 16 -3 19 -28 4 -42 24 -38 21 5 -5 52 -24 127 -34 127 -5 0 -15 -10 -23 -22z m20 -60 c-14 -9 -20 7 -11 30 6 15 8 15 15 -3 4 -12 3 -23 -4 -27z"/>
<path d="M4377 923 c-3 -5 15 -15 41 -22 l47 -13 -51 -22 c-27 -13 -97 -31 -155 -40 -57 -10 -153 -28 -214 -42 -60 -14 -185 -38 -276 -54 -202 -36 -267 -54 -588 -164 -73 -25 -139 -46 -147 -46 -8 0 -14 -4 -14 -10 0 -5 4 -10 10 -10 5 0 110 33 232 74 262 87 331 105 533 140 83 15 168 31 190 36 59 15 282 57 340 65 27 4 63 13 80 21 27 14 28 14 11 -1 -11 -8 -23 -15 -28 -15 -4 0 -8 -4 -8 -10 0 -18 25 -10 61 20 37 30 52 59 40 79 -9 14 -97 26 -104 14z"/>
<path d="M1090 692 c0 -12 58 -27 180 -47 238 -39 533 -100 795 -164 66 -16 140 -32 165 -36 80 -11 100 -16 100 -26 0 -5 -32 -9 -71 -9 -44 0 -68 -4 -64 -10 9 -14 128 -13 143 2 17 17 15 59 -4 86 -21 31 -38 28 -30 -4 l7 -27 -63 7 c-35 4 -117 20 -183 36 -233 56 -503 111 -820 169 -60 11 -120 23 -132 27 -13 3 -23 2 -23 -4z"/>
<path d="M2550 681 c-81 -43 -147 -142 -157 -236 -6 -50 19 -104 69 -153 81 -78 189 -67 294 30 77 71 90 125 53 223 -15 41 -31 64 -60 84 -75 55 -117 61 -163 26 -27 -21 -13 -31 16 -11 29 21 51 20 96 -3 70 -36 112 -104 112 -182 0 -57 -28 -97 -102 -150 -58 -40 -68 -44 -123 -44 -72 1 -101 18 -146 83 -27 42 -30 53 -26 100 10 98 100 213 178 229 16 3 29 9 29 14 0 14 -32 9 -70 -10z"/>
<path d="M2573 536 c-37 -31 -49 -80 -28 -113 13 -20 24 -23 76 -23 71 0 80 22 11 26 -50 3 -72 18 -72 50 0 26 21 40 75 52 47 9 49 26 4 30 -27 2 -44 -3 -66 -22z"/>
</g>
</svg>