<?xml version="1.0" encoding="UTF-8" standalone="no"?>
<!DOCTYPE svg PUBLIC "-//W3C//DTD SVG 20010904//EN" "http://www.w3.org/TR/2001/REC-SVG-20010904/DTD/svg10.dtd">
<svg version="1.0" xmlns="http://www.w3.org/2000/svg" width="1306.000000pt" height="844.000000pt" viewBox="0 0 1306.000000 844.000000" preserveAspectRatio="xMidYMid meet">
<metadata>
Created by potrace 1.16, written by Peter Selinger 2001-2019
</metadata>
<g transform="translate(0.000000,844.000000) scale(0.100000,-0.100000)" fill="#000000" stroke="none">
<path d="M1186 7789 c-14 -11 -26 -27 -26 -34 0 -7 -8 -21 -17 -31 -14 -13 -18 -37 -19 -113 -2 -110 2 -131 22 -131 10 0 14 12 14 44 0 40 3 46 35 65 45 26 95 104 95 148 0 37 -29 73 -59 73 -10 0 -30 -9 -45 -21z m72 -44 c5 -48 -72 -155 -94 -132 -11 11 8 104 27 136 26 43 63 40 67 -4z"/>
<path d="M1838 7760 c-27 -27 -48 -56 -48 -64 0 -9 23 -21 63 -33 53 -16 62 -22 65 -44 8 -67 -147 -158 -248 -146 -55 7 -67 -7 -22 -24 91 -35 281 65 298 158 8 43 -12 66 -72 83 -24 7 -44 14 -44 15 0 2 16 20 35 39 32 33 46 66 28 66 -5 0 -29 -23 -55 -50z"/>
<path d="M1322 7767 c-15 -19 -42 -138 -42 -186 0 -31 6 -48 25 -66 13 -14 29 -25 36 -25 24 0 66 41 94 91 23 43 29 67 29 118 1 68 -13 89 -34 50 -10 -17 -9 -23 1 -29 29 -19 -28 -166 -75 -192 -22 -13 -46 19 -46 60 1 35 20 128 35 163 8 21 -9 33 -23 16z"/>
<path d="M1670 7764 c-30 -8 -84 -18 -120 -22 -88 -10 -75 -28 18 -24 43 2 72 -1 72 -7 0 -6 -5 -44 -11 -85 -13 -86 -8 -116 16 -96 9 7 13 20 11 29 -3 9 0 51 7 95 12 76 14 79 46 90 18 6 33 15 33 21 -1 14 -12 14 -72 -1z"/>
<path d="M1045 7730 c-4 -6 -11 -43 -16 -82 -9 -70 -35 -138 -56 -145 -5 -2 -25 31 -44 74 -18 43 -38 81 -44 85 -17 13 -28 3 -31 -27 -2 -17 -8 -59 -14 -95 -20 -117 -20 -118 -5 -124 7 -2 18 1 23 7 10 13 30 87 34 127 3 22 6 20 26 -21 13 -25 33 -51 45 -58 24 -16 37 -4 70 69 32 71 43 241 12 190z"/>
<path d="M11773 7634 c-28 -14 -79 -51 -112 -83 -73 -70 -85 -110 -51 -166 48 -77 123 -86 216 -25 72 47 105 87 128 154 18 53 12 92 -21 128 -24 26 -96 23 -160 -8z"/>
<path d="M699 7615 c-3 -2 -16 -6 -29 -8 -29 -5 -46 -49 -58 -147 -9 -75 -7 -90 14 -90 10 0 14 10 12 38 -1 20 4 68 11 106 13 66 15 69 55 87 28 13 34 19 20 19 -11 0 -23 -2 -25 -5z"/>
<path d="M7608 7610 c-78 -23 -148 -116 -148 -196 0 -45 4 -54 38 -86 20 -20 47 -39 60 -43 42 -12 107 23 164 88 53 61 53 62 50 121 -3 73 -20 102 -69 115 -43 12 -57 12 -95 1z"/>
<path d="M3706 7590 c-41 -13 -71 -45 -96 -102 -27 -63 -20 -98 31 -149 36 -36 44 -39 93 -39 45 0 62 6 102 33 47 33 83 83 84 120 2 84 -124 165 -214 137z"/>
<path d="M11178 7097 c-64 -45 -147 -100 -183 -122 -154 -93 -324 -206 -450 -300 -74 -55 -157 -116 -185 -135 -28 -19 -75 -53 -104 -76 -29 -23 -128 -94 -222 -159 -134 -94 -292 -213 -419 -317 -5 -5 -40 -28 -77 -53 l-67 -44 6 35 c4 22 2 34 -6 34 -8 0 -9 13 -5 40 6 36 4 40 -14 40 -16 0 -24 -9 -32 -39 -11 -41 -33 -202 -28 -205 2 0 17 -9 35 -18 36 -21 144 -24 208 -7 93 24 191 87 169 109 -7 7 -36 -3 -87 -29 -81 -42 -174 -60 -236 -46 -42 9 -33 19 78 92 47 31 122 87 166 123 114 94 140 114 330 247 206 144 264 186 454 327 140 104 404 282 503 339 26 15 106 68 178 118 91 63 130 96 130 110 0 10 -6 19 -12 19 -7 0 -66 -37 -130 -83z"/>
<path d="M7054 7117 c-60 -29 -139 -65 -175 -81 -63 -29 -171 -79 -319 -149 -41 -19 -183 -87 -315 -151 -132 -65 -262 -128 -290 -140 -209 -97 -327 -160 -435 -234 -69 -47 -177 -120 -241 -164 -105 -71 -181 -139 -299 -268 l-41 -45 3 72 c1 39 0 74 -3 78 -12 11 -40 -47 -46 -94 -8 -72 9 -115 57 -136 35 -16 47 -17 94 -6 29 6 71 21 92 31 21 11 43 20 50 20 20 0 49 39 37 51 -8 8 -34 2 -96 -25 -80 -34 -147 -47 -147 -27 0 14 164 195 212 233 24 19 83 61 132 94 106 70 117 78 183 127 28 20 53 37 57 37 3 0 27 15 53 34 41 29 207 113 393 199 25 11 181 87 348 169 167 81 305 148 307 148 8 0 497 228 522 243 14 9 6 37 -11 36 -6 0 -61 -23 -122 -52z"/>
<path d="M12011 7061 c-18 -33 -20 -140 -5 -241 8 -52 19 -124 25 -160 5 -36 12 -72 15 -82 2 -9 9 -40 14 -70 5 -29 16 -84 25 -123 8 -38 12 -77 9 -87 -7 -22 42 -56 58 -40 8 8 6 28 -7 74 -10 35 -23 95 -31 133 -7 39 -17 90 -23 115 -43 196 -56 350 -39 470 4 31 -26 40 -41 11z"/>
<path d="M3937 7003 c-8 -12 16 -132 63 -313 23 -91 46 -181 50 -200 5 -19 21 -73 35 -120 14 -47 30 -101 35 -120 4 -19 21 -73 37 -120 57 -163 52 -193 -18 -124 -21 20 -42 33 -47 30 -17 -10 35 -92 66 -105 40 -15 95 -1 102 27 3 12 25 48 51 80 59 75 77 104 72 120 -9 24 -29 10 -78 -55 -54 -72 -75 -87 -75 -53 0 12 -5 30 -11 41 -6 11 -16 42 -24 67 -7 26 -31 110 -54 187 -97 331 -94 319 -145 555 -16 74 -28 106 -39 108 -8 2 -17 -1 -20 -5z"/>
<path d="M8187 6996 c-7 -17 87 -223 143 -315 22 -36 64 -104 95 -151 30 -47 82 -139 117 -205 78 -151 168 -286 188 -282 25 4 22 34 -7 69 -33 38 -90 134 -156 263 -26 50 -81 142 -122 205 -70 106 -146 246 -204 378 -22 51 -44 66 -54 38z"/>
<path d="M7460 6973 c-6 -16 -17 -44 -25 -63 -7 -19 -30 -78 -50 -130 -20 -52 -40 -104 -45 -115 -11 -26 -87 -209 -105 -255 -29 -75 -65 -180 -96 -280 -18 -58 -48 -141 -67 -185 -113 -261 -187 -479 -257 -750 -30 -115 -68 -255 -85 -310 -17 -55 -37 -122 -45 -150 -12 -46 -24 -84 -61 -205 -7 -25 -19 -65 -25 -90 -16 -63 -51 -184 -54 -188 -1 -1 -16 5 -33 15 -49 28 -58 9 -33 -73 23 -77 45 -99 84 -85 13 5 70 40 128 77 138 90 187 144 144 160 -9 4 -25 -6 -41 -25 -39 -46 -233 -174 -253 -166 -13 6 -12 8 7 16 29 11 33 21 92 244 20 77 33 121 77 270 68 225 121 414 137 485 37 162 144 486 221 665 26 61 67 169 91 240 24 72 53 157 65 190 12 33 29 83 39 111 15 43 45 115 90 219 16 37 60 153 60 159 0 3 11 29 24 58 45 102 68 167 61 178 -12 19 -35 10 -45 -17z"/>
<path d="M12374 6548 c-4 -6 -9 -48 -11 -92 -7 -170 -28 -225 -95 -259 -34 -17 -39 -17 -105 -1 -63 16 -72 22 -132 86 -59 63 -101 86 -101 55 0 -23 133 -154 175 -172 23 -10 69 -18 110 -19 60 -1 75 3 100 22 42 34 63 69 76 132 14 67 28 230 22 248 -6 15 -30 16 -39 0z"/>
<path d="M8899 6238 c-1 -1 -2 -32 -4 -68 -2 -72 -11 -94 -61 -157 -59 -72 -95 -75 -258 -17 -83 29 -86 29 -86 6 0 -11 12 -24 28 -32 125 -58 256 -72 305 -33 84 66 145 211 114 273 -10 20 -35 38 -38 28z"/>
<path d="M12206 5974 c-62 -22 -121 -74 -170 -148 -42 -62 -46 -73 -46 -130 0 -53 4 -68 35 -113 27 -41 43 -54 81 -67 128 -43 264 -4 380 111 74 75 87 118 60 201 -26 76 -68 107 -159 118 -42 5 -56 11 -60 25 -6 23 -62 25 -121 3z m50 -59 c17 -9 56 -15 92 -15 114 0 162 -41 162 -138 0 -84 -122 -187 -253 -214 -124 -26 -227 42 -227 150 0 62 86 183 154 216 38 19 38 19 72 1z"/>
<path d="M4455 5813 c-40 -21 -65 -44 -76 -68 -5 -11 -27 -42 -48 -69 -45 -57 -71 -136 -71 -220 0 -125 65 -173 221 -164 70 4 91 10 166 49 112 56 148 92 162 161 32 149 -35 260 -186 307 -79 25 -127 26 -168 4z m147 -44 c122 -41 168 -93 168 -190 0 -96 -13 -124 -79 -164 -123 -74 -203 -94 -295 -75 -79 16 -91 35 -89 132 2 68 7 88 35 140 33 62 95 115 122 105 7 -3 23 1 35 9 22 16 29 44 10 44 -5 0 -7 5 -4 10 9 15 28 12 97 -11z"/>
<path d="M8912 5758 c-58 -15 -121 -73 -162 -150 -30 -54 -34 -73 -34 -134 0 -80 17 -111 89 -157 43 -27 144 -57 194 -57 45 0 130 37 179 77 83 68 133 184 113 260 -30 111 -234 197 -379 161z m116 -54 c20 -13 23 -13 28 0 6 16 16 15 90 -19 67 -31 104 -75 104 -125 0 -86 -78 -192 -169 -232 -95 -41 -266 1 -306 76 -49 90 35 278 137 308 42 11 93 8 116 -8z"/>
<path d="M11963 5328 c-5 -7 -53 -56 -108 -108 -289 -276 -448 -432 -496 -490 -48 -58 -147 -172 -245 -283 -18 -21 -48 -59 -66 -84 -31 -42 -33 -44 -38 -22 -3 13 -16 43 -30 67 -35 62 -61 55 -77 -18 -28 -135 -8 -220 56 -248 30 -12 45 -13 96 -2 69 14 244 95 252 117 13 32 -14 34 -70 3 -141 -77 -265 -102 -288 -58 -13 25 -15 122 -4 159 8 23 8 23 16 4 4 -11 5 -45 2 -76 -4 -44 -2 -57 10 -62 20 -8 36 7 88 78 54 75 163 205 225 269 6 6 44 52 86 101 72 86 264 279 508 510 63 60 119 115 123 122 17 27 -23 47 -40 21z"/>
<path d="M12445 5300 c-3 -6 -10 -65 -15 -133 -25 -325 -32 -495 -25 -589 3 -57 9 -216 11 -353 2 -138 6 -317 9 -400 8 -294 6 -612 -4 -720 -5 -60 -13 -177 -16 -260 -8 -211 -24 -455 -29 -464 -3 -4 -8 -52 -11 -107 -10 -168 -35 -415 -49 -489 -7 -38 -13 -81 -14 -95 0 -57 -22 -208 -36 -245 -12 -34 -15 -37 -21 -20 -3 11 -11 27 -16 35 -5 8 -13 25 -19 38 -10 23 -34 29 -46 11 -3 -6 2 -36 12 -66 20 -59 61 -103 96 -103 24 0 228 202 228 225 0 35 -31 27 -68 -16 -56 -67 -112 -123 -117 -118 -2 3 2 28 9 57 8 28 17 96 21 149 3 54 12 132 20 173 13 68 20 137 55 535 5 66 15 212 20 325 6 113 18 302 26 420 16 226 15 366 -6 1210 -10 392 -5 673 17 890 10 103 8 120 -11 120 -8 0 -18 -5 -21 -10z"/>
<path d="M2593 5118 c-11 -13 -33 -41 -48 -63 -25 -37 -27 -38 -21 -12 11 49 -16 26 -34 -29 -10 -27 -31 -76 -48 -110 -17 -33 -27 -65 -23 -72 9 -15 22 -5 60 48 35 49 50 58 95 59 22 1 27 -2 22 -15 -4 -10 -11 -47 -16 -83 -7 -52 -6 -69 4 -80 12 -11 16 -10 25 8 7 12 8 27 4 34 -8 14 -6 45 8 100 10 36 11 37 56 37 53 0 48 17 -6 22 l-33 3 -2 84 c-1 91 -10 105 -43 69z m13 -144 c-6 -15 -76 -20 -76 -6 0 4 17 34 38 67 l37 60 3 -54 c2 -29 1 -60 -2 -67z"/>
<path d="M3130 5128 c-41 -5 -85 -7 -97 -5 -13 2 -23 0 -23 -4 0 -5 -7 -9 -15 -9 -16 0 -21 -16 -6 -22 12 -4 -52 -198 -69 -208 -7 -4 -9 -13 -6 -19 9 -14 216 -15 216 -1 0 6 -37 10 -91 10 -101 0 -95 -9 -64 80 14 40 33 47 130 49 43 1 56 4 48 12 -8 8 -32 8 -82 2 -77 -10 -77 -11 -60 47 11 37 12 37 78 44 36 3 87 6 113 6 51 0 72 14 35 24 -12 3 -24 5 -27 5 -3 -1 -39 -6 -80 -11z"/>
<path d="M4777 5133 c-17 -17 1 -44 121 -179 164 -188 207 -237 322 -373 52 -63 102 -121 110 -131 113 -132 354 -476 344 -492 -10 -16 -97 -4 -145 20 -44 22 -59 21 -59 -3 0 -26 113 -75 172 -75 16 0 41 12 58 28 59 52 95 276 51 316 -13 11 -27 15 -40 11 -24 -7 -29 -45 -6 -45 12 0 15 -14 14 -72 -1 -40 -4 -84 -8 -98 l-7 -24 -26 34 c-15 20 -33 46 -40 60 -30 57 -261 358 -368 480 -36 41 -84 98 -105 125 -22 28 -65 76 -95 109 -30 32 -60 64 -65 70 -15 16 -124 144 -169 199 -39 47 -47 53 -59 40z"/>
<path d="M2315 5104 c-14 -11 -16 -18 -7 -21 14 -6 17 -63 2 -63 -5 0 -10 9 -10 20 0 23 -34 43 -59 35 -10 -3 -26 -14 -36 -25 -23 -25 -35 -25 -35 0 0 11 -4 20 -10 20 -5 0 -10 -26 -10 -57 0 -32 -11 -95 -24 -140 -20 -72 -22 -84 -9 -95 29 -24 101 34 171 138 10 16 11 11 6 -33 -7 -59 1 -93 21 -93 19 0 30 19 18 31 -7 7 -7 27 0 57 10 53 17 242 8 242 -3 0 -15 -8 -26 -16z m-41 -70 c19 -49 -10 -119 -76 -187 -59 -61 -62 -35 -11 110 26 75 72 116 87 77z"/>
<path d="M9385 5110 c-15 -24 280 -320 501 -503 159 -132 354 -321 354 -343 0 -11 -20 -14 -84 -14 -47 0 -88 5 -91 10 -10 16 -35 12 -42 -6 -12 -32 24 -44 139 -44 130 0 135 5 120 103 -11 66 -62 172 -84 172 -22 0 -21 -33 2 -71 12 -19 20 -37 18 -39 -3 -3 -42 32 -89 76 -46 45 -117 109 -158 142 -174 145 -245 210 -396 364 -88 90 -166 163 -172 163 -7 0 -15 -5 -18 -10z"/>
<path d="M2019 5106 c-2 -2 -26 -6 -54 -9 -61 -5 -88 -16 -82 -31 6 -14 -4 -65 -26 -149 -17 -61 -14 -87 9 -87 10 0 13 7 9 23 -6 21 -4 22 41 19 53 -5 213 23 201 34 -2 2 -41 -3 -86 -11 -46 -9 -97 -15 -114 -13 -28 3 -32 6 -31 33 2 35 22 146 27 152 2 2 43 9 91 15 51 7 81 15 74 20 -14 8 -52 11 -59 4z"/>
<path d="M2825 5090 c-11 -5 -33 -9 -48 -9 -18 -1 -27 -6 -25 -13 3 -8 19 -12 41 -10 44 4 44 5 21 -108 -17 -82 -14 -110 8 -110 9 0 14 14 14 43 1 76 16 182 28 189 6 4 21 8 34 8 12 0 22 5 22 10 0 12 -67 12 -95 0z"/>
<path d="M1705 5054 c-8 -20 -15 -39 -15 -41 0 -3 -8 -21 -17 -40 -14 -31 -18 -33 -24 -17 -4 10 -8 31 -8 45 -1 24 -35 68 -46 58 -8 -9 -85 -179 -85 -189 0 -6 6 -10 14 -10 15 0 76 88 76 109 0 23 17 2 23 -29 13 -61 75 -19 92 62 4 15 11 31 17 34 8 5 9 -22 4 -89 -4 -59 -3 -97 3 -101 16 -10 20 6 27 106 7 98 -2 138 -31 138 -8 0 -22 -16 -30 -36z"/>
<path d="M1070 5049 c-14 -6 -47 -9 -75 -7 -40 2 -49 0 -47 -12 2 -8 -4 -53 -13 -101 -19 -95 -17 -134 4 -134 10 0 15 15 16 53 1 29 5 55 8 58 9 10 179 24 205 17 23 -5 32 12 10 20 -7 3 -57 2 -111 -1 l-98 -5 3 39 3 39 84 7 c88 7 105 13 81 28 -19 12 -38 12 -70 -1z"/>
<path d="M1311 5013 c-30 -36 -31 -37 -45 -18 -8 11 -18 17 -22 13 -4 -4 -1 -14 6 -23 12 -14 11 -54 -3 -159 -4 -36 22 -28 29 9 l6 36 27 -24 c34 -32 63 -40 117 -32 60 9 46 25 -21 25 -47 0 -56 3 -79 31 -14 17 -26 35 -26 41 0 6 21 30 46 53 49 46 56 78 18 83 -15 2 -31 -9 -53 -35z"/>
<path d="M2095 5015 c-5 -2 -49 -7 -97 -10 -49 -4 -88 -11 -88 -17 0 -7 24 -8 68 -4 106 10 142 17 142 27 0 9 -7 10 -25 4z"/>
<path d="M730 4989 c-30 -11 -67 -21 -82 -22 -39 -3 -39 -21 1 -25 l34 -3 -6 -77 c-6 -80 3 -115 28 -106 16 7 21 40 6 46 -5 2 -10 35 -13 75 l-4 71 56 16 c30 8 63 17 73 18 10 2 19 8 20 13 4 18 -56 15 -113 -6z"/>
<path d="M582 4918 c-7 -7 -12 -28 -12 -47 0 -20 -4 -42 -9 -49 -9 -16 -16 -8 -51 56 -13 23 -29 42 -36 42 -20 0 -54 -78 -61 -141 -5 -47 -3 -59 8 -59 23 0 41 39 47 102 l5 59 36 -56 c19 -30 41 -55 49 -55 15 0 42 58 42 90 0 11 7 20 15 20 20 0 19 13 -3 33 -14 13 -21 14 -30 5z"/>
<path d="M306 4877 c-18 -18 -26 -43 -35 -106 -15 -101 -5 -123 35 -78 28 32 31 52 8 43 -15 -6 -16 0 -11 51 5 45 12 63 31 80 15 12 26 25 26 28 0 14 -33 3 -54 -18z"/>
<path d="M970 4801 c0 -12 180 -22 220 -12 19 5 33 10 30 10 -22 7 -250 8 -250 2z"/>
<path d="M8817 4753 c-4 -3 -7 -13 -7 -21 0 -8 -27 -69 -60 -137 -33 -68 -60 -129 -60 -137 0 -8 -4 -18 -9 -23 -5 -6 -25 -48 -45 -94 -21 -47 -63 -130 -94 -185 -141 -252 -288 -559 -332 -691 -12 -38 -26 -79 -31 -90 -4 -11 -13 -38 -19 -60 -15 -50 -68 -200 -85 -240 -17 -40 -56 -132 -95 -225 -39 -94 -44 -105 -68 -160 -29 -65 -47 -107 -77 -180 -15 -36 -37 -85 -48 -110 -11 -25 -26 -63 -33 -84 -8 -22 -18 -44 -23 -50 -4 -6 -24 -51 -44 -101 -92 -234 -112 -286 -142 -370 -18 -49 -35 -97 -38 -105 -11 -26 -47 -131 -90 -262 -23 -71 -46 -128 -51 -128 -5 0 -31 22 -59 50 -27 28 -56 50 -63 50 -23 0 -26 -19 -7 -48 10 -15 25 -40 33 -55 21 -42 67 -77 101 -77 17 0 56 14 87 32 94 52 237 154 237 169 0 19 -39 23 -57 6 -22 -23 -211 -147 -216 -143 -4 4 27 103 94 296 102 295 169 468 310 795 7 17 60 140 117 275 206 483 200 469 243 605 14 44 32 96 38 115 7 19 23 67 35 105 26 79 222 484 301 620 56 96 114 214 179 367 21 51 51 117 66 145 38 77 47 181 12 146z"/>
<path d="M1507 4430 c-14 -11 -30 -20 -36 -20 -5 0 -13 -17 -16 -37 -3 -21 -15 -78 -27 -126 -15 -64 -17 -92 -10 -99 13 -13 14 -10 35 62 12 39 17 45 38 42 40 -4 81 46 87 106 5 52 -9 92 -32 92 -7 0 -25 -9 -39 -20z m43 -64 c0 -48 -34 -91 -63 -80 -21 8 -21 2 4 60 38 87 59 94 59 20z"/>
<path d="M2206 4386 c-15 -31 -47 -82 -72 -115 -47 -63 -53 -81 -29 -81 18 0 27 6 104 77 44 40 64 52 96 55 40 3 40 3 38 -30 -2 -48 -11 -79 -29 -97 -17 -16 -13 -45 6 -45 13 0 50 83 50 113 0 38 12 67 26 67 8 0 14 5 14 10 0 6 -9 10 -20 10 -14 0 -20 7 -20 24 0 13 -9 34 -20 47 l-19 24 -27 -30 c-14 -16 -33 -40 -41 -52 -9 -13 -21 -23 -29 -23 -11 0 -11 7 2 41 11 26 13 44 7 50 -7 7 -19 -9 -37 -45z m136 -11 c4 -21 1 -25 -18 -25 -28 0 -29 3 -12 30 17 27 25 25 30 -5z"/>
<path d="M1292 4418 c-5 -7 -19 -31 -30 -53 -24 -47 -58 -85 -76 -85 -7 0 -17 20 -22 47 -6 30 -15 49 -25 51 -17 3 -53 -27 -85 -73 l-22 -29 -25 30 c-35 41 -90 58 -128 38 -31 -16 -89 -106 -89 -139 0 -11 7 -31 16 -44 15 -20 23 -23 65 -19 29 3 64 15 88 31 28 18 41 23 45 14 3 -7 30 15 68 55 l64 67 11 -29 c17 -44 52 -40 98 12 l38 42 -6 -52 c-4 -29 -10 -75 -14 -103 -5 -42 -3 -51 8 -47 13 4 19 32 55 256 5 34 4 42 -8 42 -9 0 -20 -6 -26 -12z m-324 -114 c23 -16 28 -44 12 -74 -25 -47 -143 -81 -157 -45 -7 20 19 90 35 90 6 0 19 10 27 23 19 26 51 28 83 6z"/>
<path d="M1947 4402 c-56 -4 -60 -24 -6 -32 l34 -5 3 -60 c3 -86 9 -105 32 -105 20 0 28 25 10 32 -5 2 -12 33 -16 69 l-6 65 41 12 c22 7 41 17 41 22 0 8 -29 9 -133 2z"/>
<path d="M1775 4363 c-1 -27 -11 -53 -34 -86 -38 -56 -64 -60 -69 -9 -3 26 3 39 23 58 21 20 24 27 15 44 -21 38 -45 20 -60 -45 -21 -95 7 -148 63 -119 33 18 87 98 87 130 0 13 4 25 10 29 14 9 0 35 -19 35 -12 0 -16 -9 -16 -37z"/>
<path d="M2725 4385 c-4 -11 -25 -57 -46 -102 -45 -96 -47 -106 -16 -101 16 2 22 10 23 28 1 14 13 56 28 94 15 38 25 76 23 85 -3 13 -5 12 -12 -4z"/>
<path d="M625 4366 c-80 -38 -125 -97 -125 -166 0 -65 58 -88 147 -60 51 17 116 50 110 56 -3 3 -18 -1 -34 -9 -49 -26 -135 -40 -165 -28 -23 8 -28 17 -28 43 0 71 86 152 161 153 30 0 39 4 39 18 0 25 -44 22 -105 -7z"/>
<path d="M2438 4374 c-35 -10 -17 -21 39 -23 31 -1 59 -4 62 -6 2 -3 -6 -38 -17 -79 -26 -88 -26 -86 -8 -86 8 0 13 6 13 13 -1 6 7 45 18 85 18 65 22 72 45 72 32 0 65 19 35 20 -11 1 -54 3 -95 5 -41 2 -83 1 -92 -1z"/>
<path d="M2858 4355 c-27 -15 -108 -127 -108 -151 0 -40 73 -32 139 15 l31 22 0 -25 c0 -32 29 -35 55 -6 21 23 35 26 35 6 0 -19 27 -46 46 -46 8 0 30 16 48 36 21 22 36 32 40 25 4 -6 42 -10 97 -10 109 1 129 -10 84 -47 -41 -33 -114 -56 -185 -57 -96 -2 -72 -27 26 -27 116 0 257 95 202 137 -25 19 -94 32 -140 26 -27 -3 -48 -2 -48 3 0 5 16 20 35 33 36 25 42 35 25 46 -6 4 -29 -9 -50 -29 -47 -42 -52 -44 -48 -13 5 35 -16 30 -29 -7 -16 -47 -43 -86 -58 -86 -24 0 -26 37 -6 96 30 85 7 102 -29 20 -19 -44 -68 -100 -54 -60 4 10 16 33 26 49 22 37 23 55 3 55 -8 0 -15 -5 -15 -12 0 -6 -7 -4 -18 5 -23 21 -68 21 -104 2z m88 -26 c13 -21 -94 -113 -141 -121 -28 -4 -21 26 16 71 44 54 107 79 125 50z"/>
<path d="M6095 4085 c-49 -17 -75 -20 -98 -10 -21 9 -48 -8 -100 -61 -53 -54 -77 -104 -77 -161 1 -173 157 -326 316 -310 61 6 116 36 180 97 54 51 79 98 92 168 17 96 -4 154 -80 214 -100 80 -148 93 -233 63z m143 -52 c62 -39 111 -86 121 -115 26 -73 3 -162 -58 -230 -112 -124 -229 -135 -349 -33 -57 50 -85 121 -80 207 3 65 6 70 48 113 36 36 46 42 53 30 9 -17 34 -20 39 -4 6 18 99 47 151 48 29 1 58 -6 75 -16z"/>
<path d="M10363 3976 c-87 -28 -131 -79 -158 -185 -15 -56 -15 -66 -1 -115 30 -103 132 -176 245 -176 89 0 233 63 279 121 52 65 34 170 -39 233 -38 32 -84 53 -174 79 -22 7 -50 22 -63 35 -25 25 -31 26 -89 8z m67 -55 c6 -12 28 -23 58 -30 65 -13 152 -48 176 -69 26 -24 55 -85 54 -113 -2 -35 -43 -86 -91 -111 -57 -31 -136 -57 -172 -57 -111 -3 -215 90 -215 192 0 49 33 132 62 158 28 24 77 48 100 49 10 0 22 -9 28 -19z"/>
<path d="M10177 3057 c-15 -23 -46 -69 -70 -102 -67 -95 -102 -156 -147 -257 -23 -51 -51 -112 -63 -135 -18 -35 -124 -186 -158 -227 -49 -58 -179 -240 -179 -252 0 -2 -16 -28 -35 -58 -19 -30 -35 -57 -35 -60 0 -3 -22 -43 -48 -88 -27 -46 -78 -139 -114 -208 -165 -315 -195 -367 -218 -373 -16 -4 -22 4 -35 47 -37 125 -69 102 -39 -28 20 -86 54 -136 92 -136 11 0 42 17 69 38 93 73 148 102 189 102 44 0 81 20 70 38 -4 7 -28 12 -54 12 -52 0 -117 -29 -191 -86 -24 -19 -46 -32 -49 -30 -2 3 50 105 115 228 66 123 132 246 146 275 76 149 254 434 321 514 114 135 205 284 272 442 37 86 164 285 221 345 7 7 10 19 7 27 -11 27 -39 15 -67 -28z"/>
<path d="M10654 3086 c-8 -21 37 -107 104 -195 31 -42 138 -157 238 -256 213 -210 322 -335 404 -460 32 -49 77 -115 98 -145 22 -30 54 -81 71 -114 18 -32 38 -64 44 -71 7 -7 28 -38 47 -69 93 -153 163 -263 179 -281 10 -11 35 -55 56 -97 38 -79 40 -103 11 -141 -14 -18 -16 -18 -54 2 -22 11 -58 41 -81 67 -26 30 -46 44 -56 40 -24 -9 -18 -24 31 -76 43 -46 142 -110 169 -110 6 0 19 23 29 50 18 49 19 50 37 34 12 -11 23 -14 28 -8 15 16 83 231 79 250 -7 41 -39 20 -77 -50 -20 -39 -43 -72 -49 -74 -7 -2 -25 24 -42 62 -17 37 -38 74 -48 84 -22 22 -57 75 -117 177 -26 44 -73 119 -104 167 -31 47 -94 146 -141 219 -127 197 -238 331 -474 569 -218 221 -273 286 -322 379 -30 57 -50 73 -60 47z"/>
<path d="M5845 3037 c-56 -92 -74 -122 -116 -194 -26 -43 -70 -125 -98 -183 -45 -90 -136 -261 -203 -380 -42 -76 -194 -394 -260 -545 -38 -88 -88 -198 -110 -245 -22 -47 -44 -96 -50 -110 l-9 -25 -20 25 c-11 14 -31 42 -45 63 -13 20 -31 37 -40 37 -41 0 12 -143 95 -257 39 -54 68 -56 132 -11 25 18 85 53 132 78 82 42 113 75 82 86 -13 5 -157 -73 -241 -129 -28 -20 -42 -24 -55 -17 -22 12 -34 47 -21 63 5 7 13 23 17 36 4 13 31 74 60 135 28 61 66 145 84 186 18 41 38 87 46 102 8 14 15 31 15 36 0 9 157 344 180 384 5 9 44 81 87 160 42 79 94 175 115 213 20 39 42 81 48 95 30 71 169 313 212 369 10 13 18 32 18 42 0 30 -33 22 -55 -14z"/>
<path d="M2396 1019 c-53 -39 -96 -75 -96 -80 0 -15 18 -18 128 -22 56 -3 106 -8 110 -12 11 -11 -66 -73 -112 -89 -22 -7 -67 -22 -98 -32 -60 -19 -75 -34 -35 -34 30 0 162 45 196 66 44 28 81 67 81 86 0 28 -33 38 -131 38 -107 0 -107 2 2 76 61 42 87 74 60 74 -5 0 -52 -32 -105 -71z"/>
<path d="M1796 1046 c-16 -7 -44 -31 -62 -52 -18 -21 -33 -34 -34 -27 0 7 -13 9 -39 6 -24 -3 -41 -1 -46 6 -5 8 -11 9 -19 2 -7 -6 -41 -12 -75 -15 -34 -2 -65 -7 -69 -11 -15 -14 27 -25 76 -19 l54 7 -8 -93 c-6 -77 -4 -92 7 -88 10 3 16 30 21 86 4 45 9 86 13 92 3 5 20 10 37 10 l30 0 -3 -87 c-3 -63 -1 -87 9 -90 6 -3 12 2 12 11 0 8 5 38 11 65 10 47 12 50 37 45 35 -7 91 24 120 66 27 41 28 54 2 80 -23 23 -33 24 -74 6z m64 -41 c0 -21 -38 -62 -70 -75 -38 -16 -43 -11 -33 31 13 51 103 89 103 44z"/>
<path d="M12024 1036 c-3 -9 -13 -16 -21 -16 -27 0 -69 -28 -81 -55 -30 -65 5 -144 64 -145 29 0 106 35 126 57 22 24 50 107 43 126 -7 17 -41 33 -89 42 -28 6 -37 4 -42 -9z"/>
<path d="M1940 1000 c-26 -51 -38 -163 -20 -185 22 -26 69 -18 105 18 52 52 72 187 28 187 -13 0 -14 -8 -9 -41 11 -69 -36 -149 -88 -149 -12 0 -16 11 -16 49 0 42 14 85 48 154 2 4 -3 7 -12 7 -9 0 -25 -18 -36 -40z"/>
<path d="M2183 1022 c-71 -15 -92 -33 -56 -46 9 -4 21 -2 27 4 5 5 20 10 32 10 27 0 36 -46 27 -132 -5 -49 -3 -58 10 -58 23 0 24 6 17 105 -4 50 -6 92 -4 94 2 2 20 7 41 10 20 3 38 12 41 19 5 16 -43 14 -135 -6z"/>
<path d="M1004 955 c-4 -8 -15 -15 -26 -15 -53 0 -118 -69 -118 -125 0 -129 204 -164 263 -44 35 71 -19 199 -84 199 -17 0 -32 -6 -35 -15z m80 -50 c9 -13 19 -44 22 -67 4 -35 1 -48 -18 -71 -57 -69 -198 -42 -198 38 0 43 19 75 56 92 35 17 36 17 55 -7 10 -14 19 -20 20 -15 1 6 2 15 4 20 1 6 3 20 3 33 2 19 5 21 21 13 10 -6 26 -22 35 -36z"/>
<path d="M1365 961 c-3 -5 -1 -12 5 -16 18 -11 11 -96 -11 -131 -27 -44 -51 -57 -73 -41 -14 10 -16 26 -14 77 3 56 6 65 21 63 12 -1 17 4 13 14 -3 8 -6 17 -6 19 0 10 -29 2 -40 -12 -19 -22 -29 -102 -18 -141 11 -39 48 -67 77 -58 28 9 77 74 86 113 15 69 -15 153 -40 113z"/>
<path d="M4769 927 c-54 -49 -67 -88 -46 -139 16 -38 71 -78 107 -78 24 0 87 50 107 84 20 34 15 79 -12 117 -54 73 -89 77 -156 16z"/>
<path d="M8895 801 c-36 -15 -52 -45 -59 -104 -7 -64 9 -111 43 -122 26 -8 112 31 138 63 17 21 22 40 22 82 1 30 -3 61 -8 69 -11 17 -106 25 -136 12z"/>
<path d="M7200 688 c-97 -47 -124 -108 -74 -167 21 -26 33 -31 69 -31 39 0 49 6 94 49 46 45 51 54 51 94 0 77 -52 98 -140 55z"/>
</g>
</svg>