<?xml version="1.0" encoding="UTF-8" standalone="no"?>
<!DOCTYPE svg PUBLIC "-//W3C//DTD SVG 20010904//EN" "http://www.w3.org/TR/2001/REC-SVG-20010904/DTD/svg10.dtd">
<svg version="1.0" xmlns="http://www.w3.org/2000/svg" width="1227.000000pt" height="497.000000pt" viewBox="0 0 1227.000000 497.000000" preserveAspectRatio="xMidYMid meet">
<metadata>
Created by potrace 1.16, written by Peter Selinger 2001-2019
</metadata>
<g transform="translate(0.000000,497.000000) scale(0.100000,-0.100000)" fill="#000000" stroke="none">
<path d="M4035 4722 c-52 -25 -111 -91 -124 -140 -29 -107 56 -242 151 -242 86 0 198 136 198 239 0 34 -7 48 -52 96 -63 67 -106 78 -173 47z m130 -63 c50 -27 64 -46 65 -85 0 -67 -67 -166 -135 -198 -34 -17 -38 -17 -73 2 -43 22 -79 78 -88 139 -5 32 -1 53 16 88 26 54 37 58 32 10 -3 -27 -1 -35 12 -35 11 0 16 9 16 27 0 67 78 93 155 52z"/>
<path d="M4368 4594 c-18 -18 -1 -21 125 -27 217 -11 382 -30 572 -68 45 -8 101 -19 400 -73 44 -8 123 -22 175 -31 199 -34 417 -76 525 -100 192 -43 261 -56 355 -70 58 -9 137 -22 175 -30 201 -41 275 -57 325 -70 30 -7 89 -16 131 -20 42 -3 107 -14 145 -24 l69 -17 -32 -12 c-36 -12 -44 -32 -15 -32 10 0 39 7 65 16 26 9 52 14 58 12 6 -2 13 -22 15 -45 6 -61 40 -133 87 -180 37 -38 46 -43 88 -43 130 0 269 136 269 263 0 77 -79 132 -190 130 -116 -2 -176 -23 -223 -81 l-19 -23 -52 57 c-32 36 -57 55 -64 50 -18 -11 -15 -21 14 -55 31 -37 23 -38 -64 -11 -35 11 -85 20 -112 20 -26 0 -101 12 -166 26 -66 14 -141 30 -169 35 -27 5 -79 16 -115 23 -108 24 -222 44 -279 51 -30 3 -115 20 -190 36 -229 50 -263 57 -356 74 -49 8 -139 25 -200 36 -60 11 -148 27 -195 35 -146 25 -239 42 -430 78 -102 19 -243 42 -315 50 -164 19 -398 31 -407 20z m3371 -465 c17 -6 36 -20 42 -30 5 -10 16 -19 24 -19 18 0 19 12 3 28 -24 24 1 22 31 -3 39 -33 41 -78 7 -150 -52 -112 -199 -180 -269 -125 -41 33 -69 78 -82 135 -11 46 -10 58 5 91 16 36 62 74 90 74 6 0 2 -14 -11 -31 -22 -31 -22 -32 -4 -45 26 -19 34 -17 28 7 -4 13 3 30 23 50 30 31 60 36 113 18z"/>
<path d="M3755 4438 c-65 -23 -72 -46 -19 -69 l37 -16 -42 -29 c-23 -16 -61 -43 -84 -61 -23 -17 -136 -86 -252 -153 -115 -67 -217 -128 -225 -135 -8 -7 -59 -39 -113 -71 -54 -32 -115 -69 -135 -81 -20 -13 -50 -30 -67 -38 -16 -8 -66 -42 -110 -75 -44 -33 -88 -60 -97 -60 -18 0 -25 -15 -10 -23 10 -6 74 28 163 86 122 80 383 239 569 348 181 105 245 146 390 247 48 32 96 65 109 71 22 12 22 12 7 -16 -8 -15 -26 -43 -40 -62 -26 -35 -33 -61 -17 -61 15 0 101 134 101 158 0 42 -94 65 -165 40z m88 -29 c-15 -15 -93 -24 -93 -11 0 13 22 19 70 21 24 1 31 -2 23 -10z"/>
<path d="M4281 4310 c-1 -18 26 -57 88 -130 50 -58 118 -145 153 -194 35 -49 92 -129 128 -177 36 -49 90 -123 120 -166 30 -43 79 -100 109 -128 29 -27 85 -93 124 -145 39 -52 87 -113 108 -135 60 -64 150 -190 139 -193 -16 -6 -78 45 -103 84 -25 39 -37 43 -37 13 0 -12 23 -43 54 -74 41 -40 65 -55 95 -60 23 -4 41 -11 41 -16 0 -5 7 -9 15 -9 8 0 15 5 15 12 0 6 10 22 22 36 19 19 23 35 23 84 0 40 -4 63 -12 65 -10 3 -13 -12 -13 -55 0 -45 -4 -63 -19 -76 -19 -17 -21 -16 -68 45 -26 35 -67 86 -90 113 -24 28 -83 103 -132 167 -49 64 -111 136 -138 160 -27 24 -76 81 -109 127 -32 45 -90 124 -127 175 -38 50 -78 108 -90 127 -22 37 -83 114 -189 241 -34 42 -73 89 -85 105 l-22 29 0 -25z"/>
<path d="M8113 4027 c-3 -5 -3 -11 1 -14 3 -3 85 -14 183 -24 98 -10 223 -25 278 -33 55 -8 127 -17 160 -20 33 -4 92 -11 130 -16 107 -15 293 -38 365 -45 36 -3 90 -10 120 -16 54 -9 340 -34 513 -46 88 -6 111 3 67 27 -22 12 -34 32 -44 72 -5 23 -4 27 11 21 47 -16 99 -86 87 -117 -8 -22 -92 -54 -160 -61 -67 -8 -90 -17 -81 -32 14 -22 209 23 245 57 49 46 11 135 -79 181 -54 27 -63 25 -54 -13 4 -18 8 -43 9 -55 0 -12 4 -25 9 -29 19 -19 4 -26 -40 -20 -27 4 -91 9 -143 12 -87 5 -426 41 -595 64 -38 5 -128 16 -200 25 -195 23 -347 43 -475 61 -146 21 -300 31 -307 21z"/>
<path d="M10184 3856 c-32 -32 -34 -38 -34 -100 0 -61 2 -69 35 -105 23 -25 50 -43 81 -51 43 -12 47 -12 86 16 50 36 88 105 88 160 0 57 -28 81 -108 90 -34 3 -65 11 -68 15 -11 19 -48 7 -80 -25z m116 -36 c26 -26 43 -26 35 1 -7 20 -5 21 21 15 42 -11 54 -24 54 -63 0 -42 -23 -89 -62 -127 -25 -23 -36 -27 -61 -22 -47 9 -100 57 -109 97 -9 40 -2 79 13 79 6 0 22 9 36 20 14 11 32 20 39 20 8 0 23 -9 34 -20z"/>
<path d="M9975 3622 c-93 -15 -125 -25 -125 -39 0 -11 6 -14 23 -10 42 11 177 18 177 10 0 -5 -17 -17 -37 -28 -21 -11 -54 -34 -73 -51 -19 -17 -64 -52 -100 -79 -36 -27 -191 -175 -345 -330 -154 -154 -334 -326 -400 -382 -115 -97 -275 -252 -275 -266 0 -23 37 3 106 73 44 44 115 111 159 147 44 37 130 114 190 172 61 58 130 125 155 147 25 23 107 107 183 188 146 154 406 371 423 353 8 -7 -44 -94 -80 -134 l-19 -23 21 0 c14 0 32 15 52 44 16 25 30 47 30 50 0 3 16 31 35 63 45 74 45 93 3 94 -18 0 -44 1 -58 2 -14 2 -34 1 -45 -1z"/>
<path d="M2387 3596 c-93 -34 -165 -137 -166 -239 -1 -56 24 -87 97 -118 86 -37 149 -16 202 68 51 80 61 145 36 218 -24 69 -94 98 -169 71z m130 -78 c45 -42 16 -175 -52 -238 -38 -36 -104 -34 -169 4 l-49 28 6 57 c7 74 23 110 48 104 13 -4 19 0 19 11 0 23 75 56 129 56 32 0 51 -6 68 -22z"/>
<path d="M2757 3374 c-12 -12 14 -34 41 -34 14 0 48 -7 76 -15 28 -8 94 -25 146 -39 132 -33 313 -88 455 -136 66 -23 167 -55 225 -71 58 -16 128 -36 155 -44 74 -22 272 -75 335 -90 100 -23 254 -66 307 -85 28 -10 86 -22 130 -26 43 -3 114 -17 159 -30 44 -13 93 -24 110 -24 16 0 61 -12 99 -26 39 -14 80 -28 93 -31 60 -14 -17 -37 -105 -32 -37 3 -48 0 -48 -11 0 -12 16 -15 82 -13 45 1 98 9 117 17 l35 14 6 -36 c7 -40 24 -65 69 -100 43 -33 130 -31 182 4 58 39 93 74 121 122 81 137 29 226 -133 226 -88 -1 -150 -27 -147 -61 2 -13 -2 -23 -7 -23 -5 0 -27 -22 -49 -50 l-39 -50 -23 38 c-24 41 -88 112 -101 112 -18 0 -6 -24 32 -67 64 -74 58 -76 -72 -33 -49 17 -98 30 -108 30 -18 0 -83 16 -160 39 -19 6 -58 11 -85 11 -28 0 -89 11 -136 25 -46 14 -160 45 -254 70 -344 89 -391 102 -575 158 -232 70 -286 87 -320 101 -36 14 -365 110 -410 119 -75 16 -170 38 -182 42 -8 3 -17 3 -21 -1z m2755 -506 c74 -28 45 -157 -57 -246 -83 -73 -154 -76 -222 -9 -67 64 -27 158 95 225 58 32 64 33 81 18 18 -16 41 -22 41 -9 0 3 -8 15 -17 26 -18 19 -17 19 17 13 19 -4 47 -12 62 -18z"/>
<path d="M5880 2652 c0 -10 78 -28 160 -37 70 -8 195 -30 385 -67 83 -16 220 -40 305 -54 85 -13 227 -37 315 -53 88 -16 225 -39 305 -51 80 -11 170 -25 200 -30 59 -9 97 -12 370 -31 96 -6 177 -13 179 -15 12 -11 -17 -17 -104 -22 -71 -3 -95 -8 -95 -18 0 -10 16 -14 63 -14 128 1 237 43 237 93 0 28 -138 163 -153 148 -7 -7 9 -29 56 -73 37 -35 67 -71 67 -81 0 -19 -20 -23 -37 -6 -6 6 -74 12 -164 15 -85 2 -181 8 -214 14 -33 5 -101 12 -151 15 -50 3 -106 10 -125 15 -18 5 -72 15 -119 20 -127 16 -277 40 -346 56 -33 8 -69 14 -80 14 -10 0 -68 9 -129 19 -60 11 -155 28 -210 37 -55 9 -122 22 -150 29 -27 7 -75 16 -105 20 -30 4 -71 11 -90 15 -44 12 -311 50 -345 50 -14 0 -25 -4 -25 -8z"/>
<path d="M4862 2616 c-29 -8 -55 -16 -58 -19 -17 -16 15 -27 77 -27 39 0 68 -4 65 -9 -3 -4 -31 -16 -63 -26 -108 -33 -468 -203 -571 -269 -39 -24 -135 -76 -214 -115 -173 -85 -363 -193 -518 -294 -63 -41 -135 -86 -160 -100 -25 -14 -83 -47 -130 -74 -47 -27 -150 -81 -230 -122 -153 -77 -199 -105 -188 -117 6 -6 326 151 403 198 17 10 41 23 55 30 14 6 32 17 40 24 8 6 45 28 82 47 36 20 98 58 136 85 61 44 111 74 237 142 29 15 90 52 130 78 11 6 58 30 105 53 130 61 200 99 255 134 76 50 152 89 276 143 63 27 130 59 150 70 19 11 69 31 110 45 41 14 91 33 113 42 21 9 40 14 43 12 8 -9 -46 -86 -72 -103 -28 -18 -33 -34 -11 -34 44 0 135 136 121 181 -13 39 -83 49 -183 25z"/>
<path d="M8440 2334 c-8 -4 -23 -15 -33 -25 -10 -11 -26 -19 -35 -19 -10 0 -35 -15 -55 -34 -36 -32 -37 -36 -37 -100 0 -123 73 -219 166 -218 69 2 170 69 226 150 28 41 32 54 32 119 1 65 -2 75 -25 99 -24 24 -34 26 -125 30 -54 2 -106 1 -114 -2z m220 -49 c28 -26 27 -103 -2 -163 -34 -68 -158 -162 -214 -162 -38 0 -88 43 -116 100 -30 60 -35 104 -16 145 15 33 72 68 97 60 11 -3 22 -1 26 5 9 15 96 12 129 -5 16 -9 31 -13 34 -11 11 12 -10 36 -40 45 -30 10 -27 10 24 8 38 -3 64 -10 78 -22z"/>
<path d="M7985 2121 c-9 -16 6 -19 98 -20 49 0 92 -3 97 -6 16 -10 -1 -36 -20 -30 -10 3 -21 1 -25 -4 -3 -6 -51 -33 -106 -61 -56 -28 -108 -55 -117 -60 -10 -5 -44 -21 -77 -35 -97 -43 -342 -162 -584 -285 -280 -141 -317 -160 -516 -255 -163 -78 -223 -108 -400 -202 -55 -30 -156 -81 -225 -114 -69 -33 -187 -91 -262 -127 -76 -37 -140 -73 -143 -80 -10 -28 7 -31 38 -8 32 25 187 101 327 161 41 18 138 67 215 109 77 42 230 121 340 175 110 54 259 127 330 162 72 35 207 103 300 151 200 102 505 250 567 275 24 9 95 44 158 76 161 83 176 87 111 29 -36 -32 -50 -51 -42 -56 14 -9 137 97 157 136 18 35 11 64 -19 72 -35 9 -195 7 -202 -3z"/>
<path d="M8744 1988 c-4 -7 1 -17 10 -22 163 -97 291 -187 462 -328 38 -31 119 -96 179 -144 61 -48 123 -101 140 -116 16 -16 59 -49 95 -73 37 -25 100 -76 141 -114 67 -63 71 -70 48 -71 -14 0 -61 9 -104 20 -48 12 -82 17 -88 11 -13 -13 20 -28 104 -46 156 -32 198 -14 184 79 -8 50 -56 126 -80 126 -17 0 -18 -4 -15 -74 l2 -49 -53 44 c-29 24 -62 52 -74 62 -11 10 -50 39 -87 64 -38 25 -68 48 -68 52 0 3 -46 42 -101 86 -56 44 -137 109 -181 145 -167 136 -256 204 -336 253 -163 102 -171 107 -178 95z m1140 -791 c8 -40 8 -67 -2 -67 -11 0 -34 40 -37 64 -1 12 -5 37 -9 56 l-7 35 25 -29 c13 -16 27 -42 30 -59z"/>
<path d="M1824 1345 c-11 -14 -29 -38 -41 -53 l-22 -27 -1 33 c0 43 -24 38 -28 -6 -4 -37 -10 -39 -45 -12 -27 21 -57 27 -57 10 0 -5 21 -22 47 -37 l47 -27 -57 -14 c-66 -16 -75 -32 -17 -32 22 0 40 -2 40 -3 0 -2 -7 -18 -16 -36 -17 -35 -12 -85 9 -78 7 2 11 17 10 33 -2 17 5 40 16 54 l19 24 7 -49 c9 -65 13 -77 25 -70 5 3 7 33 3 72 -7 75 -9 75 68 11 26 -21 52 -38 58 -38 12 0 16 30 4 30 -5 0 -24 14 -43 31 l-35 31 42 -5 c47 -6 58 0 42 20 -7 8 -33 13 -70 13 -60 0 -71 8 -44 30 31 25 76 103 67 112 -6 6 -17 0 -28 -17z"/>
<path d="M2445 1361 c-36 -9 -103 -44 -130 -68 -11 -10 -37 -44 -58 -75 -50 -76 -50 -118 -2 -164 74 -70 175 -69 254 2 101 91 108 184 19 259 -30 25 -31 27 -8 20 36 -11 78 -33 85 -45 9 -15 25 -12 25 5 0 39 -121 82 -185 66z m76 -79 c47 -42 51 -102 9 -164 -34 -52 -96 -88 -149 -88 -39 0 -107 33 -121 59 -28 53 10 125 104 199 43 33 116 31 157 -6z"/>
<path d="M2672 1148 c5 -15 34 -23 193 -58 52 -11 195 -45 255 -60 124 -32 232 -65 522 -161 364 -121 425 -138 583 -169 61 -12 144 -28 185 -37 41 -9 109 -19 150 -23 41 -4 93 -13 115 -18 128 -35 178 -43 252 -37 61 4 72 3 48 -5 -16 -6 -48 -14 -69 -18 -22 -4 -41 -13 -44 -20 -6 -18 88 -6 158 22 48 18 55 25 58 52 4 36 -28 72 -91 103 -56 28 -68 15 -39 -44 12 -25 22 -47 22 -49 0 -2 -27 -6 -59 -10 -47 -5 -83 -1 -163 18 -57 14 -130 28 -163 31 -33 3 -80 10 -105 15 -25 5 -94 19 -155 30 -245 46 -261 51 -702 196 -319 106 -670 202 -815 223 -35 6 -79 15 -98 20 -43 14 -43 14 -38 -1z m2373 -519 c0 -36 -20 -32 -43 10 -29 52 -28 57 11 32 20 -13 32 -28 32 -42z"/>
<path d="M10220 1123 c-41 -15 -112 -69 -131 -100 -18 -29 -20 -39 -11 -54 7 -10 12 -29 12 -41 0 -13 16 -46 35 -75 40 -60 68 -70 150 -53 102 21 189 135 166 217 -23 81 -67 113 -151 112 -30 0 -62 -3 -70 -6z m148 -40 c31 -19 55 -79 48 -116 -14 -68 -87 -130 -167 -142 -58 -9 -83 4 -109 55 -40 78 -18 130 72 170 47 21 82 14 110 -23 9 -12 20 -18 24 -14 14 13 -16 59 -46 70 -17 6 -30 15 -30 20 0 11 71 -3 98 -20z"/>
<path d="M5280 772 c-59 -28 -97 -62 -115 -103 -24 -52 -15 -112 22 -151 24 -26 33 -29 66 -25 49 7 113 51 151 105 16 23 33 42 38 42 4 0 8 16 8 35 0 95 -79 140 -170 97z m128 -75 c8 -93 -140 -214 -198 -162 -25 23 -35 75 -21 117 9 26 21 37 58 53 63 26 92 33 128 32 27 -2 30 -6 33 -40z"/>
</g>
<g transform="translate(0.000000,497.000000) scale(0.100000,-0.100000)" fill="#9F9F9F" stroke="none">
<path d="M9980 3178 c-30 -28 -145 -137 -255 -242 -202 -192 -395 -366 -439 -395 -13 -9 -36 -31 -51 -49 -24 -29 -30 -31 -44 -19 -9 7 -28 18 -43 25 -25 10 -31 9 -58 -18 -33 -32 -94 -200 -88 -242 3 -22 7 -23 113 -26 84 -2 123 2 164 15 70 23 85 46 51 76 -14 12 -38 39 -54 60 -26 34 -28 40 -16 63 8 14 43 49 79 78 36 29 82 69 101 87 19 19 62 56 95 84 136 112 536 515 533 535 -6 29 -34 19 -88 -32z"/>
<path d="M5770 2533 c-71 -25 -120 -60 -120 -86 0 -12 11 -49 25 -82 13 -33 25 -74 25 -92 0 -46 9 -63 35 -63 18 0 25 8 34 44 6 25 15 56 20 69 l10 25 68 -14 c83 -17 284 -48 413 -63 52 -6 142 -18 200 -26 62 -9 186 -15 305 -15 242 -1 415 -12 640 -41 94 -11 184 -22 200 -24 17 -2 55 -6 86 -10 45 -6 57 -4 62 7 3 8 2 19 -1 24 -10 14 -144 40 -302 59 -74 9 -166 21 -205 27 -38 6 -205 13 -370 15 -198 2 -336 9 -405 19 -111 17 -296 40 -420 53 -41 5 -95 13 -120 19 -25 6 -62 14 -82 17 -40 6 -46 15 -25 37 36 37 69 90 63 103 -7 20 -76 19 -136 -2z"/>
<path d="M5105 2360 c-22 -16 -65 -39 -95 -51 -30 -13 -103 -50 -161 -83 -110 -64 -144 -81 -219 -112 -25 -11 -65 -33 -90 -49 -48 -33 -132 -71 -245 -112 -66 -24 -428 -199 -580 -281 -38 -20 -101 -52 -140 -69 -38 -18 -98 -45 -133 -62 l-62 -30 -18 36 c-9 20 -28 40 -41 45 -21 8 -31 1 -83 -54 -126 -136 -100 -204 81 -214 47 -2 97 -5 110 -7 42 -4 49 26 16 72 -15 23 -26 42 -24 44 2 1 33 17 69 36 36 19 83 47 106 62 23 15 110 62 195 104 176 87 162 80 253 129 39 21 93 47 120 58 28 11 83 34 121 53 39 18 95 43 125 55 30 12 111 51 180 85 69 35 152 77 185 93 33 17 78 38 100 47 22 9 63 31 90 49 45 30 145 83 217 116 30 14 40 32 32 55 -10 25 -65 17 -109 -15z"/>
<path d="M8572 1773 c-22 -63 -37 -219 -22 -228 5 -3 7 -12 4 -19 -6 -15 12 -31 44 -39 15 -3 41 6 79 29 66 40 72 41 104 14 13 -11 83 -59 154 -107 153 -101 254 -179 350 -272 70 -67 263 -231 361 -306 29 -22 89 -68 134 -102 44 -35 88 -63 98 -63 20 0 62 42 62 62 0 7 -69 65 -152 128 -84 63 -206 160 -272 215 -65 55 -146 120 -180 143 -33 24 -132 94 -219 155 -87 62 -192 136 -233 166 l-74 54 45 53 c25 29 45 56 45 62 0 20 -39 44 -63 38 -27 -6 -111 20 -170 53 -60 33 -72 29 -95 -36z"/>
<path d="M8106 1749 c-64 -36 -120 -76 -371 -263 -121 -90 -335 -220 -465 -282 -173 -83 -214 -102 -275 -130 -140 -63 -517 -255 -600 -305 -49 -30 -101 -62 -115 -70 -14 -7 -32 -19 -40 -25 -8 -7 -59 -35 -113 -63 -72 -38 -102 -49 -111 -42 -7 6 -24 34 -38 64 -29 59 -61 92 -80 84 -7 -3 -21 -27 -31 -53 -10 -27 -26 -62 -34 -78 -9 -16 -18 -60 -21 -98 -5 -68 -4 -71 24 -94 27 -22 35 -24 119 -18 50 3 100 7 112 10 32 6 38 39 13 74 -12 17 -20 36 -17 43 3 7 31 25 64 41 61 31 164 90 272 157 34 21 66 39 69 39 3 0 13 6 21 14 9 7 43 27 76 44 128 66 423 209 475 231 104 44 384 183 424 210 23 16 69 43 103 61 34 18 97 60 140 92 43 33 114 84 158 113 44 30 94 66 110 81 17 15 74 56 128 91 79 52 98 69 95 86 -2 11 -7 21 -13 23 -5 1 -41 -16 -79 -37z"/>
<path d="M2608 1006 c-53 -28 -106 -59 -117 -69 -26 -25 -19 -73 23 -152 26 -47 38 -61 59 -63 21 -3 30 3 38 22 7 14 19 28 29 31 9 3 26 25 38 49 l21 44 53 -14 c29 -7 64 -14 77 -14 13 0 44 -6 70 -14 108 -34 251 -76 321 -95 41 -11 156 -43 255 -70 99 -27 203 -52 230 -55 28 -3 102 -22 165 -41 63 -20 171 -50 240 -67 69 -16 141 -36 160 -43 156 -55 251 -74 415 -79 133 -4 253 -25 282 -48 18 -14 43 -2 43 20 0 37 -160 80 -325 88 -150 6 -212 17 -345 60 -58 18 -172 51 -255 73 -82 22 -181 49 -220 61 -38 12 -95 25 -126 30 -53 9 -159 36 -294 75 -33 10 -78 21 -100 25 -22 4 -123 32 -225 63 -155 48 -350 97 -382 97 -14 0 -8 32 13 66 26 43 18 75 -19 73 -15 -1 -71 -25 -124 -53z"/>
</g>

</svg>