<?xml version="1.0" encoding="UTF-8" standalone="no"?>
<!DOCTYPE svg PUBLIC "-//W3C//DTD SVG 20010904//EN" "http://www.w3.org/TR/2001/REC-SVG-20010904/DTD/svg10.dtd">
<svg version="1.0" xmlns="http://www.w3.org/2000/svg" width="1055.000000pt" height="516.000000pt" viewBox="0 0 1055.000000 516.000000" preserveAspectRatio="xMidYMid meet">
<metadata>
Created by potrace 1.16, written by Peter Selinger 2001-2019
</metadata>
<g transform="translate(0.000000,516.000000) scale(0.100000,-0.100000)" fill="#000000" stroke="none">
<path d="M3397 4710 c-81 -25 -145 -117 -133 -193 14 -83 78 -157 137 -157 74 0 179 125 179 213 0 53 -94 149 -142 146 -7 0 -26 -5 -41 -9z m96 -67 c48 -24 58 -42 53 -89 -10 -79 -83 -159 -146 -159 -44 0 -64 18 -92 81 -22 51 -20 98 6 136 16 22 16 22 16 -11 0 -38 23 -39 28 0 8 57 69 76 135 42z"/>
<path d="M3667 4593 c-4 -3 -2 -12 4 -20 8 -9 40 -13 113 -13 120 0 347 -25 461 -50 22 -5 67 -13 100 -19 33 -6 110 -20 170 -31 61 -10 162 -29 225 -40 215 -38 245 -44 430 -82 102 -21 262 -52 355 -68 176 -31 376 -71 480 -95 33 -8 93 -17 133 -21 40 -4 89 -12 109 -19 33 -11 34 -13 15 -19 -22 -7 -29 -21 -14 -30 4 -3 26 0 48 5 91 24 84 25 84 -19 0 -52 22 -103 66 -152 41 -46 81 -57 142 -41 126 35 225 204 166 285 -32 42 -147 77 -190 57 -14 -6 -40 -11 -58 -11 -24 0 -45 -11 -79 -40 l-45 -40 -18 27 c-21 33 -55 62 -71 63 -20 0 -15 -27 9 -50 26 -24 14 -25 -56 -5 -28 8 -87 19 -131 24 -44 5 -145 23 -225 40 -184 40 -264 55 -435 81 -33 5 -78 14 -100 20 -82 21 -490 101 -665 130 -30 5 -80 13 -110 19 -67 12 -266 48 -337 61 -136 25 -179 31 -338 45 -188 17 -229 18 -238 8z m2952 -413 c18 -5 40 -19 48 -30 18 -26 37 -26 30 0 -6 24 1 25 25 3 34 -30 17 -118 -35 -181 -23 -29 -113 -72 -148 -72 -30 0 -43 7 -69 37 -40 45 -60 91 -60 139 0 28 8 44 34 70 42 42 66 46 41 7 -17 -25 -17 -27 1 -40 17 -13 19 -12 22 9 3 23 48 68 67 68 6 0 25 -4 44 -10z"/>
<path d="M3165 4463 c-40 -9 -85 -34 -85 -48 0 -8 6 -15 13 -15 6 0 20 -6 29 -13 15 -12 9 -19 -55 -67 -40 -29 -124 -82 -187 -118 -63 -36 -189 -111 -280 -167 -91 -56 -197 -121 -236 -143 -39 -23 -94 -59 -121 -80 -27 -22 -59 -43 -71 -46 -12 -4 -22 -14 -22 -22 0 -21 50 2 128 57 33 24 98 66 144 92 46 26 106 62 134 80 44 28 162 99 409 246 39 23 115 73 169 111 55 39 103 70 109 70 5 0 -7 -23 -27 -50 -35 -49 -45 -80 -27 -80 5 0 30 32 55 71 58 92 54 105 -44 124 -8 1 -24 0 -35 -2z m45 -32 c0 -10 -69 -25 -77 -17 -7 7 35 24 60 25 9 1 17 -3 17 -8z"/>
<path d="M3590 4337 c0 -8 44 -68 98 -134 96 -116 205 -263 347 -468 19 -27 64 -79 100 -114 35 -35 86 -93 112 -130 25 -36 65 -87 87 -112 84 -93 122 -149 103 -149 -14 0 -63 46 -91 85 -17 23 -31 15 -22 -13 10 -29 73 -89 109 -102 18 -6 40 -16 49 -21 24 -12 22 -14 52 29 20 29 26 50 26 90 0 39 -4 52 -15 52 -10 0 -15 -15 -17 -57 -4 -80 -22 -80 -83 -1 -27 35 -69 86 -94 114 -25 28 -64 77 -86 108 -22 32 -70 89 -108 127 -38 39 -136 163 -217 277 -141 198 -320 423 -340 430 -6 2 -10 -3 -10 -11z"/>
<path d="M9040 4255 c0 -13 -4 -14 -20 -5 -16 9 -20 8 -20 -5 0 -13 -6 -15 -32 -9 -29 6 -31 5 -19 -10 7 -9 22 -16 31 -16 25 0 50 -10 50 -20 0 -5 -9 -6 -20 -3 -23 6 -28 -15 -5 -23 11 -5 13 -10 5 -19 -14 -17 0 -25 34 -19 15 2 43 0 63 -5 20 -6 40 -8 45 -5 17 11 -12 31 -52 38 -39 6 -51 18 -30 31 5 3 18 0 29 -6 15 -10 22 -10 35 4 21 21 20 34 -3 40 -15 4 -18 11 -14 28 l6 24 -25 -22 c-29 -27 -36 -29 -34 -7 0 9 -5 19 -11 21 -7 3 -13 -3 -13 -12z"/>
<path d="M6952 4089 c6 -18 41 -27 106 -28 29 -1 83 -5 120 -11 37 -5 123 -17 192 -25 69 -9 175 -22 235 -30 244 -32 495 -59 773 -85 62 -6 125 -13 140 -16 15 -2 33 0 41 5 12 7 10 13 -11 33 -14 12 -29 36 -32 51 l-7 28 31 -16 c41 -21 67 -62 53 -84 -16 -25 -62 -44 -137 -56 -42 -6 -71 -16 -74 -24 -12 -36 206 13 230 52 15 23 8 74 -13 101 -25 32 -115 80 -124 66 -3 -5 -2 -18 3 -27 5 -10 12 -35 15 -56 l6 -37 -67 5 c-181 16 -389 37 -502 50 -200 24 -450 55 -520 65 -145 20 -309 40 -384 46 -62 5 -77 3 -74 -7z"/>
<path d="M8776 3949 c-87 -69 -16 -239 101 -239 53 0 123 91 123 160 0 47 -27 68 -108 85 -91 19 -84 19 -116 -6z m104 -44 c7 -8 19 -15 27 -15 9 0 13 6 9 15 -7 20 18 19 39 -2 27 -26 14 -88 -27 -130 -28 -30 -38 -34 -67 -29 -19 3 -47 18 -63 32 -22 22 -28 37 -28 71 0 30 4 43 14 43 7 0 19 7 26 15 7 8 23 15 35 15 12 0 28 -7 35 -15z"/>
<path d="M8570 3735 c-8 -2 -32 -6 -52 -10 -24 -4 -38 -11 -38 -21 0 -15 31 -14 138 2 42 6 41 -5 -4 -34 -104 -67 -261 -203 -359 -308 -60 -65 -137 -143 -170 -174 -33 -30 -103 -96 -155 -146 -52 -49 -111 -103 -130 -118 -56 -45 -230 -216 -230 -227 0 -22 27 -3 113 80 51 49 111 105 135 124 47 40 283 259 347 323 22 22 78 82 125 134 47 51 114 116 150 144 155 123 191 149 196 143 7 -7 -12 -43 -49 -90 -30 -39 -30 -60 1 -41 27 16 132 198 122 208 -10 10 -113 18 -140 11z"/>
<path d="M1925 3711 c-56 -25 -111 -90 -129 -152 -20 -66 -20 -79 0 -107 20 -29 105 -72 141 -72 64 0 144 87 158 171 10 58 -13 138 -45 154 -47 24 -83 26 -125 6z m125 -71 c27 -27 25 -75 -6 -138 -45 -91 -87 -109 -169 -72 -54 25 -68 48 -59 98 9 52 22 72 44 72 11 0 20 6 20 14 0 41 134 62 170 26z"/>
<path d="M2256 3522 c-10 -16 16 -29 89 -46 154 -36 208 -51 390 -108 105 -33 242 -75 305 -94 63 -19 151 -46 195 -59 44 -13 143 -40 220 -60 137 -35 264 -69 375 -100 30 -8 73 -15 96 -15 23 0 70 -9 104 -20 34 -11 73 -20 86 -20 13 0 68 -14 122 -32 l97 -32 -40 -8 c-22 -4 -62 -7 -88 -7 -34 -1 -47 -5 -45 -13 8 -24 126 -20 190 6 12 6 18 0 23 -22 17 -79 128 -134 201 -99 86 41 164 149 164 226 0 31 -6 44 -30 64 -33 28 -108 43 -170 32 -41 -7 -94 -41 -85 -54 2 -5 -5 -17 -16 -27 -11 -10 -29 -33 -40 -51 l-21 -34 -19 39 c-25 50 -86 109 -99 96 -7 -7 4 -24 30 -53 22 -23 40 -47 40 -53 0 -11 -3 -11 -108 26 -41 14 -86 26 -101 26 -16 0 -54 9 -86 20 -32 11 -79 20 -105 20 -26 0 -88 12 -136 26 -49 14 -156 43 -239 64 -270 70 -520 142 -695 200 -162 54 -252 80 -447 130 -62 16 -121 31 -132 35 -11 3 -22 2 -25 -3z m2431 -457 c51 -34 13 -141 -74 -212 -38 -31 -52 -37 -94 -37 -40 0 -54 5 -79 29 -62 59 -32 144 70 199 44 24 56 27 72 17 25 -16 43 -4 26 17 -12 14 -9 15 21 9 19 -4 45 -14 58 -22z"/>
<path d="M4891 3334 c-34 -30 -43 -34 -60 -24 -18 9 -21 8 -21 -10 0 -11 5 -20 10 -20 17 0 11 -22 -8 -27 -13 -3 -18 -14 -19 -39 -1 -38 11 -44 27 -14 6 11 18 20 28 20 14 0 14 -2 3 -9 -19 -12 -6 -41 19 -41 15 0 20 7 20 25 0 22 3 24 19 15 48 -25 57 4 11 35 -38 25 -38 47 0 78 30 26 39 47 20 47 -5 0 -28 -16 -49 -36z"/>
<path d="M7277 3013 c-4 -3 -7 -17 -7 -31 0 -21 -2 -23 -15 -12 -11 9 -19 10 -26 3 -7 -7 -2 -16 15 -27 15 -9 26 -21 26 -27 0 -8 -5 -7 -15 1 -20 16 -32 5 -16 -14 9 -11 10 -20 1 -35 -6 -12 -9 -21 -8 -22 2 -1 18 -2 36 -4 22 -2 32 2 32 11 0 10 6 11 25 4 42 -16 45 18 3 48 -18 13 -18 15 3 48 25 41 16 60 -11 24 -18 -23 -20 -23 -20 -5 0 25 -14 48 -23 38z"/>
<path d="M4994 2889 c-8 -13 10 -18 177 -44 90 -14 200 -33 244 -41 128 -26 154 -31 265 -48 119 -18 182 -29 290 -51 41 -8 154 -26 250 -40 96 -14 198 -29 225 -34 28 -5 86 -12 130 -15 135 -11 319 -25 345 -27 l25 -1 -25 -8 c-14 -4 -53 -8 -87 -9 -51 -1 -63 -4 -63 -17 0 -15 10 -16 83 -11 127 8 203 49 178 95 -13 24 -117 122 -130 122 -23 0 -9 -23 52 -80 50 -48 59 -61 47 -69 -9 -7 -19 -6 -27 1 -8 6 -70 13 -141 15 -70 2 -151 8 -181 13 -30 6 -77 10 -103 10 -27 0 -81 6 -121 14 -40 8 -112 19 -162 26 -81 11 -146 22 -465 75 -104 18 -241 43 -450 81 -169 31 -350 53 -356 43z"/>
<path d="M4077 2848 c-45 -16 -26 -33 36 -33 30 0 58 -3 62 -7 4 -4 -19 -14 -51 -23 -33 -9 -90 -32 -129 -50 -38 -19 -124 -59 -190 -90 -66 -31 -151 -76 -190 -100 -38 -24 -119 -67 -180 -97 -148 -72 -331 -177 -476 -270 -65 -43 -121 -78 -123 -78 -2 0 -39 -21 -82 -46 -42 -25 -141 -78 -218 -117 -171 -86 -190 -97 -178 -109 16 -16 431 202 616 324 49 32 114 73 145 90 31 17 74 41 96 53 22 12 69 40 105 61 36 22 94 52 130 68 36 15 117 58 180 96 63 38 144 82 180 98 36 16 101 47 145 67 82 39 267 107 272 101 8 -8 -34 -66 -59 -81 -32 -18 -37 -35 -10 -35 24 0 68 43 92 90 23 45 25 71 8 88 -15 15 -141 15 -181 0z"/>
<path d="M7273 2610 c-23 -3 -48 -12 -57 -19 -9 -8 -30 -21 -48 -30 -75 -38 -91 -118 -44 -216 21 -43 36 -58 71 -75 66 -32 118 -14 213 74 49 45 72 96 72 159 0 58 -21 93 -63 101 -46 10 -104 12 -144 6z m159 -47 c23 -21 24 -92 2 -139 -33 -70 -151 -151 -204 -139 -57 12 -103 90 -98 167 5 77 45 101 167 99 30 0 60 -6 67 -11 9 -8 14 -7 20 1 4 7 -1 18 -11 26 -17 12 -17 13 10 13 16 0 37 -7 47 -17z"/>
<path d="M6840 2415 c0 -11 19 -15 87 -17 60 -2 88 -7 91 -16 3 -9 -3 -11 -22 -6 -17 4 -26 2 -26 -5 0 -7 -75 -48 -167 -93 -389 -187 -445 -215 -598 -292 -160 -81 -247 -124 -560 -278 -93 -46 -253 -126 -355 -179 -102 -52 -235 -118 -296 -146 -124 -59 -171 -90 -156 -105 7 -7 25 0 54 19 23 16 88 49 143 73 55 25 147 69 205 98 273 141 516 263 630 318 69 34 217 108 330 165 113 57 264 132 335 166 72 34 197 94 279 133 82 39 150 69 152 67 2 -2 -14 -17 -36 -33 -39 -29 -52 -54 -27 -54 22 0 135 114 143 144 11 45 -13 56 -118 56 -71 0 -88 -3 -88 -15z"/>
<path d="M7500 2300 c0 -5 30 -27 68 -49 139 -82 203 -130 532 -401 47 -39 114 -92 149 -118 97 -71 226 -185 214 -189 -6 -2 -46 5 -89 16 -75 18 -110 16 -82 -6 20 -15 128 -38 181 -38 55 0 67 12 67 69 0 68 -62 148 -92 118 -6 -6 -6 -17 1 -30 12 -22 15 -62 5 -62 -3 0 -38 26 -77 58 -40 32 -88 69 -107 82 -19 13 -58 44 -86 70 -28 25 -93 78 -145 118 -52 40 -125 99 -162 132 -38 32 -119 92 -180 133 -152 101 -197 123 -197 97z m1000 -669 c6 -16 10 -42 8 -57 l-4 -29 -11 25 c-6 14 -15 44 -20 68 -8 33 -8 40 2 32 7 -6 18 -24 25 -39z"/>
<path d="M1433 1733 c-10 -16 -26 -37 -35 -47 -17 -18 -17 -18 -15 7 3 34 -17 36 -21 2 -4 -29 -11 -31 -38 -10 -21 16 -54 20 -54 6 0 -5 19 -20 43 -34 l42 -25 -52 -8 c-37 -4 -53 -11 -53 -21 0 -11 9 -14 35 -11 29 3 34 1 29 -11 -12 -27 -17 -70 -10 -87 9 -23 38 2 31 27 -4 10 0 29 7 41 12 22 13 20 18 -27 4 -36 9 -50 20 -50 12 0 14 12 11 59 l-3 59 36 -28 c20 -15 40 -35 45 -43 9 -15 41 -11 41 6 0 5 -17 21 -37 35 l-38 27 38 0 c35 0 48 12 27 25 -5 3 -30 6 -55 7 -25 0 -45 2 -45 4 0 2 16 24 35 50 34 45 44 74 25 74 -5 0 -17 -12 -27 -27z"/>
<path d="M1925 1730 c-59 -34 -109 -89 -131 -146 -14 -37 -14 -45 -1 -71 21 -40 109 -87 149 -79 55 11 99 39 134 84 28 37 34 53 34 94 0 44 -4 54 -35 85 -28 28 -30 33 -12 27 12 -4 34 -15 49 -25 16 -12 29 -16 33 -9 9 15 -2 28 -45 50 -55 28 -114 25 -175 -10z m142 -69 c30 -44 29 -59 -5 -110 -40 -59 -77 -81 -136 -81 -41 0 -53 5 -81 33 -43 43 -38 72 24 139 70 76 154 84 198 19z"/>
<path d="M2182 1569 c6 -17 5 -17 248 -74 248 -59 350 -89 640 -186 129 -43 269 -88 310 -99 94 -26 361 -79 456 -90 39 -5 111 -18 160 -30 67 -17 106 -21 159 -16 71 5 60 -6 -17 -19 -24 -4 -38 -11 -38 -20 0 -18 9 -18 80 -1 78 19 107 32 118 53 16 27 -14 67 -71 98 -62 34 -77 24 -48 -33 l20 -40 -31 -6 c-49 -10 -93 -7 -155 10 -32 8 -103 22 -158 30 -182 28 -446 84 -544 115 -53 18 -195 64 -316 104 -304 101 -521 159 -730 195 -27 5 -58 12 -69 16 -14 5 -17 3 -14 -7z m2065 -431 c24 -23 31 -52 11 -46 -15 5 -54 68 -42 68 4 0 18 -10 31 -22z"/>
<path d="M8807 1546 c-43 -13 -100 -55 -124 -92 -13 -21 -14 -30 -5 -45 7 -10 12 -26 12 -34 0 -26 38 -92 62 -109 50 -35 136 -11 201 55 43 44 47 53 47 96 0 51 -25 105 -57 121 -32 17 -97 21 -136 8z m140 -52 c47 -51 39 -110 -23 -164 -37 -32 -104 -55 -139 -46 -48 12 -81 106 -52 149 18 28 74 57 110 57 16 0 34 -10 46 -26 17 -22 22 -24 27 -11 8 21 -2 35 -39 58 l-31 18 39 -5 c24 -4 49 -16 62 -30z"/>
<path d="M4448 1230 c-40 -21 -73 -62 -89 -109 -15 -41 21 -118 58 -127 44 -11 98 13 142 64 61 69 61 68 61 107 0 77 -87 110 -172 65z m131 -38 c20 -38 -22 -116 -83 -153 -62 -38 -106 -14 -106 57 0 36 5 46 30 64 30 21 100 47 132 49 10 1 22 -7 27 -17z"/>
<path d="M9048 1220 c-14 -23 -49 -26 -78 -8 -10 7 -23 8 -27 4 -4 -5 -2 -11 5 -13 23 -9 12 -23 -18 -23 -16 0 -30 -4 -30 -10 0 -11 7 -12 60 -12 l35 0 -33 -6 c-38 -8 -47 -26 -15 -30 19 -3 21 -8 16 -33 -5 -29 10 -42 20 -16 3 6 6 -3 6 -21 1 -26 5 -33 18 -30 14 3 17 12 14 51 -3 47 11 61 35 37 13 -13 54 -1 54 16 0 8 -10 14 -24 14 -14 0 -28 5 -32 12 -7 11 2 10 67 -4 8 -2 14 4 14 12 0 9 -11 16 -25 18 -49 6 -54 11 -36 31 15 17 13 31 -6 31 -4 0 -13 -9 -20 -20z"/>
<path d="M4687 1063 c-4 -3 -7 -15 -7 -25 0 -12 -7 -18 -22 -18 -55 -1 -61 -33 -8 -45 38 -8 38 -22 0 -65 -16 -19 -29 -41 -30 -47 0 -24 29 -13 47 17 9 17 26 30 36 30 13 0 17 5 13 15 -7 19 3 19 25 -1 10 -9 23 -13 28 -9 19 11 12 34 -15 48 -24 13 -25 15 -9 31 10 10 25 14 36 11 13 -4 19 -2 19 9 0 19 -31 29 -64 20 -22 -5 -26 -3 -26 15 0 21 -10 27 -23 14z"/>
</g>
<g transform="translate(0.000000,516.000000) scale(0.100000,-0.100000)" fill="#9F9F9F" stroke="none">
<path d="M8824 3486 c-9 -23 -94 -110 -164 -167 -36 -30 -108 -94 -160 -144 -52 -50 -113 -104 -135 -120 -22 -16 -75 -63 -118 -104 l-78 -76 -25 33 c-28 35 -43 39 -74 20 -24 -15 -55 -113 -65 -204 -9 -84 5 -98 89 -89 34 4 82 13 108 20 90 26 107 46 69 84 -11 11 -27 33 -35 49 l-15 29 137 135 c145 142 267 259 342 324 89 78 162 149 171 167 6 10 7 27 4 37 -7 23 -43 27 -51 6z"/>
<path d="M5019 2689 c-7 -5 -53 -9 -101 -9 -86 0 -88 -1 -88 -24 0 -13 22 -57 50 -97 27 -41 50 -79 50 -86 0 -29 24 -63 44 -63 16 0 28 14 48 61 l28 62 42 -7 c24 -3 115 -13 203 -21 88 -9 205 -22 260 -31 237 -35 448 -53 717 -61 114 -3 215 -2 224 1 16 6 16 8 1 23 -14 14 -50 18 -219 24 -284 10 -458 26 -753 70 -33 4 -114 13 -180 19 -152 13 -265 27 -272 34 -3 3 0 19 6 37 8 24 8 36 -1 46 -19 23 -43 32 -59 22z"/>
<path d="M3913 2407 c-45 -34 -133 -89 -195 -121 -145 -76 -487 -259 -558 -300 -91 -52 -108 -59 -124 -53 -9 4 -16 17 -16 30 0 24 -17 47 -35 47 -26 0 -165 -159 -165 -189 0 -7 -10 -21 -22 -31 -21 -17 -21 -20 -8 -34 13 -13 28 -14 85 -7 47 5 100 4 164 -5 52 -7 99 -11 103 -7 20 11 -4 88 -35 114 l-30 25 144 79 c79 43 167 92 194 110 28 17 118 67 200 110 277 144 415 236 415 276 0 33 -31 21 -117 -44z"/>
<path d="M7531 2070 c-51 -22 -81 -51 -81 -79 0 -30 92 -177 123 -195 15 -9 22 -6 40 16 l22 27 45 -38 c25 -21 101 -75 170 -121 69 -46 148 -102 177 -126 28 -24 54 -44 57 -44 3 0 13 16 22 35 13 28 14 38 4 50 -20 24 -184 143 -352 256 l-78 52 30 52 30 52 -28 32 c-24 28 -35 32 -92 36 -36 3 -76 0 -89 -5z"/>
<path d="M6695 1940 c-55 -26 -161 -76 -235 -111 -356 -163 -358 -164 -795 -415 -126 -72 -248 -141 -271 -152 l-41 -21 -21 45 c-29 59 -52 58 -93 -3 -18 -27 -41 -58 -52 -70 -10 -12 -16 -26 -13 -32 4 -6 -7 -17 -24 -26 -58 -30 -25 -65 63 -65 23 -1 60 -7 82 -15 53 -20 79 -19 98 3 22 24 21 37 -5 72 -12 16 -20 32 -17 34 2 2 27 15 56 30 28 14 93 50 144 81 50 30 93 55 94 55 2 0 59 32 127 71 67 39 157 90 198 112 41 22 91 50 110 62 41 25 129 68 255 123 50 22 171 80 270 129 99 50 195 94 213 98 22 5 32 12 32 26 0 35 -65 24 -175 -31z"/>
<path d="M2420 1271 c-68 -5 -85 -9 -88 -23 -3 -15 40 -83 94 -150 12 -15 25 -43 28 -62 7 -39 23 -44 70 -26 17 6 26 17 26 31 0 22 36 89 48 89 4 0 23 -5 42 -10 19 -6 67 -15 105 -21 39 -5 142 -34 230 -63 88 -29 205 -63 260 -76 143 -32 262 -65 401 -110 123 -41 154 -47 154 -31 0 15 -22 27 -105 59 -154 59 -261 91 -400 122 -55 12 -181 48 -280 80 -99 32 -214 63 -255 70 -41 6 -89 16 -106 21 -31 9 -31 11 -21 40 11 27 9 32 -13 49 -26 20 -35 21 -190 11z"/>
</g>
</svg>