<?xml version="1.0" encoding="UTF-8" standalone="no"?>
<!DOCTYPE svg PUBLIC "-//W3C//DTD SVG 20010904//EN" "http://www.w3.org/TR/2001/REC-SVG-20010904/DTD/svg10.dtd">
<svg version="1.0" xmlns="http://www.w3.org/2000/svg" width="1055.000000pt" height="516.000000pt" viewBox="0 0 1055.000000 516.000000" preserveAspectRatio="xMidYMid meet">
<metadata>
Created by potrace 1.16, written by Peter Selinger 2001-2019
</metadata>
<g transform="translate(0.000000,516.000000) scale(0.100000,-0.100000)" fill="#000000" stroke="none">
<path d="M2913 4635 c-100 -50 -135 -153 -85 -250 27 -55 53 -76 101 -82 33 -5 49 -1 79 20 53 35 104 117 109 175 4 43 1 51 -33 90 -37 43 -80 72 -107 72 -7 0 -36 -11 -64 -25z m110 -46 c40 -21 67 -52 67 -78 -1 -74 -88 -181 -148 -181 -42 0 -83 40 -100 98 -15 51 -15 55 4 100 16 34 17 35 23 14 8 -30 24 -28 33 4 13 49 71 69 121 43z"/>
<path d="M3205 4529 c-14 -21 11 -26 152 -33 172 -7 239 -16 498 -63 240 -43 265 -48 405 -72 228 -39 297 -52 445 -82 83 -16 173 -36 200 -43 28 -8 88 -19 135 -26 47 -7 141 -24 210 -37 69 -14 136 -27 150 -30 14 -2 61 -13 105 -23 44 -10 122 -23 172 -29 51 -6 105 -17 120 -23 27 -11 27 -12 6 -15 -29 -5 -30 -33 -3 -33 11 0 36 7 56 15 47 19 64 11 64 -34 1 -49 30 -110 74 -155 31 -31 43 -36 82 -36 144 0 289 198 214 293 -33 42 -98 61 -181 53 -82 -7 -125 -23 -158 -59 l-24 -26 -39 44 c-39 44 -68 58 -68 32 0 -7 7 -23 16 -35 18 -26 13 -27 -52 -7 -27 8 -69 15 -94 15 -25 0 -76 7 -115 15 -206 45 -412 86 -505 100 -58 9 -139 25 -180 35 -41 10 -136 31 -210 45 -148 29 -165 32 -385 70 -82 14 -199 34 -260 46 -385 72 -408 76 -560 89 -195 17 -264 19 -270 9z m2835 -419 c0 -5 -4 -10 -9 -10 -17 0 -24 -42 -10 -51 21 -13 32 -11 26 4 -3 8 5 26 18 40 33 40 96 38 137 -3 32 -32 55 -32 38 1 -15 27 5 25 24 -3 59 -83 -66 -248 -187 -248 -59 0 -115 70 -124 155 -6 53 -5 56 31 90 38 35 56 43 56 25z"/>
<path d="M2661 4382 c-46 -23 -48 -35 -9 -53 l32 -15 -82 -59 c-45 -33 -125 -84 -179 -113 -54 -30 -163 -95 -243 -145 -80 -50 -180 -111 -223 -136 -43 -25 -115 -72 -160 -103 -45 -32 -88 -58 -94 -58 -7 0 -13 -7 -13 -15 0 -8 2 -15 5 -15 13 0 93 45 125 70 19 15 58 40 85 55 28 15 131 78 230 140 99 61 231 140 294 175 63 35 132 77 155 95 67 51 197 137 201 133 3 -2 -11 -26 -30 -53 -35 -48 -44 -75 -26 -75 16 0 91 121 91 146 0 44 -94 60 -159 26z m79 -22 c-8 -5 -28 -10 -45 -10 -23 0 -27 3 -15 10 8 5 29 10 45 10 23 0 27 -3 15 -10z"/>
<path d="M3130 4277 c0 -18 23 -49 110 -152 43 -49 128 -162 190 -250 166 -235 185 -260 241 -312 28 -26 80 -88 116 -137 36 -50 76 -100 88 -111 28 -25 118 -146 113 -151 -9 -8 -79 49 -93 76 -15 29 -35 40 -35 20 0 -43 75 -115 130 -126 17 -4 33 -11 36 -15 7 -13 34 -11 34 1 0 6 9 23 21 39 15 21 19 39 17 76 -4 71 -28 72 -28 2 0 -54 -15 -83 -36 -69 -6 4 -38 44 -72 89 -34 45 -67 85 -73 88 -6 4 -36 41 -67 84 -30 42 -88 110 -127 151 -61 64 -108 125 -240 309 -11 16 -39 55 -62 89 -41 58 -176 227 -198 247 -6 6 -19 22 -28 38 -18 28 -37 36 -37 14z"/>
<path d="M8537 4184 c5 -14 1 -15 -25 -9 -26 5 -31 4 -26 -9 3 -8 21 -18 40 -22 19 -3 34 -10 34 -16 0 -5 -4 -6 -10 -3 -5 3 -15 3 -22 -1 -8 -5 -6 -11 7 -20 14 -11 16 -16 6 -28 -17 -20 0 -27 38 -16 18 5 44 5 63 -1 43 -12 48 -11 48 4 0 7 -20 18 -45 25 -51 13 -64 38 -15 29 17 -4 30 -2 30 3 0 6 5 9 11 8 22 -5 21 23 -1 29 -15 4 -20 11 -17 24 6 23 -18 26 -27 4 -3 -8 -10 -15 -15 -15 -6 0 -8 7 -5 15 7 18 -17 20 -33 4 -8 -8 -13 -8 -17 0 -11 17 -26 13 -19 -5z"/>
<path d="M6490 4031 c0 -19 38 -31 96 -31 32 0 85 -4 118 -9 34 -6 117 -17 186 -26 69 -9 175 -22 235 -30 61 -8 169 -22 240 -30 72 -8 166 -20 210 -25 139 -16 177 -20 310 -31 180 -16 218 -16 222 -2 2 6 -4 14 -15 17 -23 8 -45 47 -40 72 3 15 8 13 41 -15 53 -47 52 -83 -4 -105 -22 -9 -67 -20 -100 -25 -63 -8 -78 -16 -63 -31 6 -6 33 -6 74 2 112 19 160 48 160 95 0 40 -30 80 -81 107 -59 32 -74 33 -64 4 3 -13 10 -40 14 -60 7 -32 6 -38 -8 -38 -32 0 -386 30 -411 35 -14 3 -83 12 -155 20 -71 8 -182 22 -245 30 -63 9 -149 20 -190 25 -41 5 -147 17 -235 28 -236 30 -295 34 -295 23z"/>
<path d="M8318 3890 c-34 -26 -48 -75 -38 -129 9 -51 32 -78 88 -103 53 -24 71 -18 120 37 40 46 54 89 45 138 -6 32 -27 45 -91 57 -26 5 -58 12 -72 15 -18 5 -34 0 -52 -15z m93 -46 c18 -16 44 -11 34 7 -10 15 18 10 43 -7 31 -21 28 -63 -8 -112 -42 -58 -58 -64 -108 -42 -31 14 -47 29 -57 54 -20 47 -19 75 3 83 9 4 23 13 30 20 18 17 42 16 63 -3z"/>
<path d="M8075 3668 c-54 -10 -71 -20 -61 -37 4 -6 16 -7 35 0 16 6 55 9 87 7 l59 -3 -39 -23 c-88 -52 -262 -201 -373 -319 -65 -69 -140 -147 -168 -172 -27 -25 -86 -80 -130 -122 -44 -41 -100 -93 -125 -115 -98 -86 -245 -229 -248 -241 -8 -32 29 -6 122 85 56 53 117 110 136 126 19 16 71 63 115 105 44 42 109 103 145 136 36 34 116 116 179 183 117 126 354 323 369 308 5 -5 -45 -85 -72 -114 l-21 -24 24 4 c23 3 41 25 108 133 13 20 26 47 29 59 5 20 1 24 -27 30 -40 8 -81 6 -144 -6z"/>
<path d="M1432 3630 c-78 -56 -128 -170 -100 -228 17 -35 102 -81 150 -82 68 0 141 87 154 184 8 57 -18 129 -52 145 -47 21 -107 14 -152 -19z m158 -50 c38 -38 20 -126 -41 -195 -38 -42 -74 -46 -139 -12 -42 20 -45 25 -48 66 -4 53 14 101 38 101 10 0 21 7 24 15 16 42 132 59 166 25z"/>
<path d="M1796 3451 c-7 -11 30 -25 129 -47 97 -21 320 -86 510 -148 208 -68 339 -105 635 -182 96 -25 204 -55 240 -66 36 -11 97 -24 135 -28 39 -4 99 -14 135 -23 36 -9 89 -21 119 -28 30 -6 79 -22 110 -34 50 -21 53 -24 31 -29 -14 -3 -50 -7 -80 -8 -33 -2 -53 -7 -50 -13 7 -13 150 -11 176 3 19 10 22 7 33 -28 13 -45 61 -86 109 -96 54 -11 96 4 153 55 92 83 122 170 79 231 -28 39 -112 57 -186 41 -48 -11 -95 -44 -81 -57 3 -3 -5 -17 -19 -31 -13 -13 -32 -35 -40 -49 l-16 -24 -17 29 c-33 59 -95 119 -105 102 -4 -6 12 -31 35 -56 23 -25 39 -48 36 -51 -3 -4 -39 5 -79 19 -40 14 -104 31 -143 38 -38 6 -78 16 -88 21 -10 5 -58 13 -107 19 -48 5 -112 17 -142 28 -29 11 -136 40 -238 66 -102 26 -223 58 -270 72 -47 13 -123 35 -170 48 -47 13 -97 28 -110 33 -25 10 -199 66 -360 115 -80 24 -332 87 -350 87 -5 0 -11 -4 -14 -9z m2434 -453 c48 -45 3 -149 -93 -219 -55 -40 -113 -40 -156 0 -65 61 -26 160 84 211 35 16 43 17 62 4 23 -15 37 -6 28 18 -9 22 48 11 75 -14z"/>
<path d="M4425 3270 c-21 -22 -34 -28 -52 -24 -26 7 -32 -13 -11 -34 10 -10 8 -14 -10 -19 -14 -3 -22 -12 -20 -22 1 -9 -1 -21 -5 -28 -14 -22 16 -27 31 -5 18 28 35 28 27 1 -5 -13 -2 -25 6 -30 18 -11 29 -2 29 23 0 18 4 19 35 14 44 -9 45 6 5 36 -16 12 -30 29 -30 38 0 19 30 50 48 50 7 0 12 7 12 15 0 25 -34 17 -65 -15z"/>
<path d="M6810 2930 c0 -30 -13 -40 -25 -20 -4 6 -11 8 -16 4 -6 -4 -1 -16 12 -30 19 -20 20 -24 6 -24 -19 0 -23 -15 -7 -25 7 -4 7 -13 0 -26 -14 -25 -3 -44 15 -29 10 8 15 8 21 -1 5 -9 11 -7 20 5 8 12 19 16 32 12 31 -10 34 9 7 38 l-24 26 19 35 c21 37 10 60 -12 25 -18 -28 -28 -25 -28 10 0 17 -4 30 -10 30 -5 0 -10 -13 -10 -30z"/>
<path d="M4540 2822 c0 -13 20 -17 155 -37 112 -16 133 -20 310 -54 55 -11 129 -24 165 -30 145 -25 248 -43 300 -51 30 -5 93 -16 140 -24 47 -8 137 -22 200 -31 63 -9 138 -20 165 -25 47 -9 385 -38 470 -40 64 -2 12 -18 -60 -19 -66 -1 -103 -15 -72 -27 9 -3 50 -5 90 -2 80 4 170 40 175 71 4 18 -118 147 -138 147 -23 0 -7 -25 53 -81 48 -46 59 -62 48 -68 -9 -6 -22 -4 -36 5 -12 8 -24 12 -27 9 -3 -3 -77 -1 -164 5 -246 17 -271 19 -399 39 -66 11 -158 24 -205 31 -47 6 -130 20 -185 30 -55 10 -129 23 -165 29 -127 20 -306 52 -345 61 -22 5 -71 14 -110 20 -38 7 -101 18 -140 25 -104 20 -225 29 -225 17z"/>
<path d="M3623 2789 c-18 -5 -33 -16 -33 -24 0 -12 15 -15 68 -16 l67 0 -40 -19 c-22 -10 -46 -19 -53 -19 -35 -2 -409 -182 -509 -245 -39 -25 -105 -60 -145 -78 -40 -18 -100 -48 -133 -68 -64 -39 -161 -93 -210 -118 -16 -9 -69 -42 -116 -74 -121 -81 -238 -147 -429 -245 -91 -47 -171 -91 -179 -99 -39 -36 12 -19 161 56 200 101 293 154 423 239 127 84 346 207 500 283 66 33 144 75 173 94 29 20 110 62 180 95 70 33 159 75 197 94 39 18 97 41 130 50 33 9 66 22 73 27 7 6 15 8 18 5 10 -10 -26 -62 -57 -83 -33 -22 -37 -34 -11 -34 36 1 97 75 107 132 6 30 4 38 -13 47 -25 13 -124 13 -169 0z"/>
<path d="M6751 2526 c-19 -14 -40 -26 -47 -26 -6 0 -23 -12 -38 -26 -22 -23 -26 -35 -26 -88 1 -104 67 -196 142 -196 64 0 185 91 219 165 27 59 25 127 -5 162 -23 26 -30 28 -118 31 -87 3 -95 2 -127 -22z m220 -27 c18 -18 21 -30 17 -74 -5 -63 -35 -108 -106 -160 -94 -69 -159 -53 -200 49 -28 70 -24 115 14 145 32 25 146 39 188 22 39 -14 55 1 25 23 l-23 16 32 0 c19 0 40 -8 53 -21z"/>
<path d="M6387 2363 c-18 -18 0 -23 77 -23 83 0 110 -10 88 -32 -6 -6 -12 -6 -17 2 -5 8 -11 7 -23 -3 -18 -15 -194 -105 -362 -185 -174 -82 -511 -248 -580 -286 -36 -19 -132 -67 -215 -107 -226 -107 -341 -165 -565 -287 -41 -22 -98 -50 -127 -61 -84 -33 -256 -121 -277 -141 -27 -27 -11 -38 22 -17 15 10 77 41 137 70 61 28 184 89 275 135 370 190 472 241 615 309 83 40 232 114 332 165 100 51 243 122 319 158 76 36 201 96 278 133 136 65 140 66 104 32 -38 -35 -48 -55 -27 -55 17 0 108 81 130 117 26 42 18 69 -23 77 -41 8 -153 8 -161 -1z"/>
<path d="M7042 2238 c3 -7 47 -39 99 -72 104 -65 216 -144 269 -192 19 -18 80 -67 135 -110 55 -43 132 -105 171 -138 39 -34 98 -80 130 -103 32 -24 84 -65 113 -93 61 -56 57 -60 -44 -35 -70 17 -95 18 -95 6 0 -18 121 -50 192 -51 38 0 49 4 59 21 22 43 -16 160 -57 176 -23 9 -33 -13 -26 -61 l5 -41 -34 27 c-19 15 -61 48 -94 73 -33 25 -98 77 -145 115 -321 263 -435 351 -561 430 -95 59 -125 72 -117 48z m988 -658 c24 -47 28 -103 6 -80 -12 13 -39 120 -30 120 2 0 13 -18 24 -40z"/>
<path d="M964 1658 c-26 -40 -28 -41 -33 -20 -8 31 -25 29 -29 -3 -4 -28 -18 -31 -46 -10 -11 8 -26 15 -33 15 -24 0 -14 -18 23 -41 39 -24 34 -34 -21 -42 -43 -5 -44 -27 -1 -27 35 0 47 -12 26 -25 -13 -8 -13 -72 -1 -80 13 -7 26 15 23 40 -2 11 4 29 12 40 15 19 15 18 16 -20 0 -45 12 -71 28 -61 7 4 8 28 5 63 l-6 57 41 -35 c23 -19 42 -40 42 -48 0 -8 6 -11 16 -7 9 3 18 6 20 6 16 0 -3 30 -34 54 l-37 29 37 -6 c39 -6 61 9 37 24 -8 5 -35 9 -61 9 -27 0 -48 5 -48 10 0 6 3 10 8 10 9 0 62 83 62 99 0 22 -18 10 -46 -31z"/>
<path d="M1466 1668 c-97 -52 -161 -159 -131 -218 16 -30 64 -65 106 -75 45 -11 110 13 155 59 71 71 77 157 13 210 -39 33 -28 33 28 0 25 -14 47 -23 50 -20 23 23 -70 76 -130 76 -18 -1 -58 -15 -91 -32z m129 -52 c13 -13 27 -36 30 -49 14 -56 -60 -148 -130 -161 -54 -10 -129 28 -133 68 -5 42 16 82 66 126 39 35 51 40 94 40 38 0 54 -5 73 -24z"/>
<path d="M1726 1511 c-9 -14 16 -28 64 -35 25 -4 56 -11 70 -16 14 -4 52 -13 85 -20 167 -35 348 -87 645 -187 140 -47 289 -94 330 -105 91 -24 394 -84 470 -94 30 -3 82 -13 115 -21 33 -8 98 -18 145 -22 85 -7 85 -7 41 -17 -25 -5 -46 -15 -49 -22 -6 -18 89 -5 151 20 39 17 47 25 47 47 0 41 -71 101 -119 101 -26 0 -26 -1 -1 -50 l20 -38 -31 -7 c-48 -11 -89 -8 -156 9 -34 9 -119 25 -190 36 -70 12 -150 25 -178 30 -27 6 -72 14 -100 19 -95 17 -241 60 -510 149 -148 50 -295 97 -325 106 -165 45 -348 88 -440 102 -25 3 -53 10 -62 15 -10 5 -19 5 -22 0z m2073 -445 c13 -16 9 -46 -6 -46 -4 0 -16 18 -25 40 -16 38 -16 39 1 30 10 -5 23 -16 30 -24z"/>
<path d="M8294 1458 c-55 -37 -99 -95 -85 -112 4 -6 14 -28 21 -49 7 -21 26 -54 42 -73 25 -28 37 -34 69 -34 98 0 199 85 199 168 0 85 -51 132 -143 132 -45 0 -63 -6 -103 -32z m187 -27 c36 -37 40 -94 8 -135 -34 -43 -94 -76 -138 -76 -34 0 -44 5 -66 35 -30 39 -37 94 -15 120 18 21 84 55 108 55 10 0 29 -11 42 -25 14 -15 27 -22 33 -16 11 11 -11 47 -38 60 -18 9 -18 10 8 10 19 1 39 -9 58 -28z"/>
<path d="M4005 1176 c-42 -19 -84 -60 -100 -100 -12 -28 -12 -41 -2 -76 28 -99 102 -99 200 0 44 45 57 65 57 89 0 84 -71 124 -155 87z m120 -55 c13 -41 -58 -138 -118 -160 -53 -20 -82 15 -75 90 3 30 9 37 57 62 66 33 127 36 136 8z"/>
<path d="M8585 1160 c-20 -22 -64 -27 -83 -8 -17 17 -28 2 -12 -17 11 -13 8 -15 -19 -15 -32 0 -41 -13 -18 -27 6 -4 12 -15 12 -23 0 -10 8 -14 23 -12 25 4 27 -1 12 -29 -14 -25 -3 -44 15 -29 11 9 14 5 17 -16 4 -35 31 -47 28 -13 -5 58 0 79 18 79 10 0 22 -4 28 -9 5 -6 16 -4 28 5 23 16 14 30 -24 37 -16 3 -9 5 18 6 51 1 54 24 4 29 -35 4 -40 13 -17 32 14 12 12 30 -4 30 -4 0 -16 -9 -26 -20z"/>
<path d="M4227 1003 c-4 -3 -7 -16 -7 -28 0 -18 -5 -21 -22 -18 -13 2 -29 -1 -37 -6 -21 -13 -5 -41 23 -41 38 0 40 -17 7 -62 -31 -42 -39 -68 -21 -68 5 0 20 15 32 33 13 17 30 32 38 32 8 0 14 8 14 18 -2 17 -1 17 17 1 20 -18 49 -13 49 9 0 7 -11 19 -24 27 -31 16 -23 40 15 40 19 0 29 5 29 15 0 15 -22 20 -67 16 -17 -1 -23 4 -23 19 0 20 -11 26 -23 13z"/>
</g>
<g transform="translate(0.000000,516.000000) scale(0.100000,-0.100000)" fill="#9F9F9F" stroke="none">
<path d="M8094 3350 c-28 -10 -84 -23 -125 -30 -112 -20 -127 -42 -57 -84 l42 -25 -50 -48 c-27 -26 -74 -70 -103 -98 -30 -27 -79 -84 -109 -125 -30 -41 -105 -124 -167 -185 -118 -117 -178 -195 -173 -223 6 -32 33 -23 61 21 15 25 81 95 147 156 67 64 143 146 173 189 30 42 78 100 108 127 30 28 80 76 111 107 l58 57 42 -15 c24 -8 53 -26 65 -41 24 -29 53 -26 53 6 0 11 7 24 16 29 31 18 4 191 -31 197 -5 2 -33 -5 -61 -15z"/>
<path d="M3506 2537 c-17 -12 -18 -18 -8 -47 7 -18 12 -45 12 -61 0 -24 -7 -30 -52 -47 -46 -18 -540 -254 -593 -284 -47 -26 -156 -84 -303 -158 -305 -155 -367 -197 -316 -217 9 -3 19 -2 23 3 3 5 31 21 61 36 30 15 102 53 160 84 211 112 528 272 630 318 58 25 136 63 173 82 37 20 105 51 150 69 l82 33 20 -51 c19 -48 24 -52 56 -55 39 -3 48 5 69 58 8 19 26 56 41 82 16 26 31 63 34 81 6 33 5 36 -27 46 -34 11 -112 29 -163 37 -17 3 -38 -1 -49 -9z"/>
<path d="M4568 2539 c-34 -20 -10 -57 27 -43 31 12 227 -19 420 -66 110 -27 236 -56 280 -65 111 -22 105 -17 94 -67 -13 -54 -5 -88 21 -88 10 0 22 5 25 10 6 10 128 70 198 98 34 14 34 28 1 55 -14 12 -51 45 -82 74 -61 56 -107 70 -119 36 -4 -10 -12 -22 -20 -26 -7 -4 -13 -19 -13 -32 0 -18 -5 -25 -20 -25 -24 0 -146 28 -359 82 -228 58 -413 81 -453 57z"/>
<path d="M7163 1993 c-27 -10 -10 -42 81 -156 122 -152 141 -174 247 -284 49 -50 89 -95 89 -100 0 -5 -16 -17 -35 -26 -63 -30 -56 -69 13 -82 20 -3 70 -18 110 -32 40 -13 79 -22 87 -20 26 11 45 69 45 143 0 69 -2 74 -29 93 -16 12 -32 21 -36 21 -3 0 -26 -13 -50 -30 -24 -16 -48 -30 -52 -30 -17 0 -230 227 -318 339 -117 148 -137 170 -152 164z"/>
<path d="M6336 1924 c-19 -19 -14 -63 12 -102 8 -12 13 -25 10 -27 -7 -8 -330 -161 -368 -175 -19 -7 -48 -18 -65 -25 -16 -7 -72 -30 -123 -50 -52 -20 -121 -52 -155 -71 -94 -53 -184 -94 -562 -261 -173 -76 -434 -219 -443 -241 -6 -18 16 -32 37 -24 9 3 54 28 101 55 122 71 353 181 495 237 110 43 327 141 345 156 28 22 118 63 296 135 99 39 244 102 323 140 79 38 147 67 151 64 4 -3 16 -28 26 -56 20 -55 36 -74 58 -66 16 6 72 117 81 162 4 17 12 40 18 53 16 34 -6 49 -95 66 -42 8 -88 22 -101 31 -23 15 -26 14 -41 -1z"/>
<path d="M1757 1293 c-23 -22 19 -48 138 -84 22 -6 50 -15 62 -20 35 -13 436 -128 558 -160 61 -15 126 -33 145 -39 19 -7 49 -15 65 -20 17 -4 84 -24 150 -45 66 -20 176 -51 245 -69 374 -99 452 -122 460 -137 6 -10 2 -39 -11 -79 -11 -35 -17 -70 -15 -77 6 -15 42 -18 51 -3 3 5 12 7 20 4 8 -4 23 8 37 30 15 23 40 43 70 56 44 19 68 43 68 69 0 5 -20 39 -45 75 -25 37 -45 75 -45 86 0 10 -5 22 -10 25 -18 11 -70 -19 -76 -42 -4 -13 -10 -20 -16 -17 -13 8 -38 -15 -38 -37 0 -11 -2 -19 -4 -19 -16 0 -568 149 -696 188 -127 39 -306 91 -380 110 -182 49 -417 117 -556 163 -157 51 -166 53 -177 42z"/>
</g>
</svg>