<?xml version="1.0" encoding="UTF-8" standalone="no"?>
<!DOCTYPE svg PUBLIC "-//W3C//DTD SVG 20010904//EN" "http://www.w3.org/TR/2001/REC-SVG-20010904/DTD/svg10.dtd">
<svg version="1.0" xmlns="http://www.w3.org/2000/svg" width="1097.000000pt" height="432.000000pt" viewBox="0 0 1097.000000 432.000000" preserveAspectRatio="xMidYMid meet">
<metadata>
Created by potrace 1.16, written by Peter Selinger 2001-2019
</metadata>
<g transform="translate(0.000000,432.000000) scale(0.100000,-0.100000)" fill="#000000" stroke="none">
<path d="M3681 4190 c-76 -35 -113 -87 -113 -160 0 -77 55 -160 116 -176 69 -17 195 115 196 204 0 56 -90 153 -142 152 -7 0 -33 -9 -57 -20z m93 -46 c26 -9 54 -27 63 -40 45 -69 -51 -224 -140 -224 -15 0 -38 12 -56 31 -54 53 -64 148 -21 201 l18 23 -1 -30 c-2 -38 17 -49 21 -13 3 24 43 68 62 68 3 0 28 -7 54 -16z"/>
<path d="M3976 4083 c-16 -16 -2 -23 47 -23 66 0 354 -26 427 -39 121 -20 349 -63 410 -76 36 -8 135 -26 220 -40 85 -15 178 -30 205 -35 84 -14 348 -69 385 -80 19 -6 82 -17 140 -26 112 -16 290 -50 460 -88 58 -13 135 -27 171 -30 36 -3 85 -12 110 -20 43 -13 43 -13 17 -21 -16 -4 -28 -12 -28 -17 0 -10 17 -9 108 8 31 6 32 5 32 -29 0 -45 33 -124 67 -159 41 -43 83 -53 142 -33 96 32 181 136 181 221 0 53 -49 97 -128 114 -44 9 -65 9 -80 1 -11 -6 -32 -11 -47 -11 -33 0 -73 -21 -104 -53 l-23 -26 -48 52 c-41 44 -49 49 -55 34 -5 -12 0 -26 15 -43 28 -29 16 -31 -56 -9 -27 8 -80 18 -119 21 -38 3 -106 14 -150 24 -77 18 -114 26 -235 49 -121 23 -158 30 -230 41 -41 7 -111 20 -155 30 -135 31 -353 73 -790 150 -27 5 -102 19 -165 30 -248 46 -339 60 -445 70 -177 15 -272 20 -279 13z m2957 -414 c12 -6 30 -21 39 -33 20 -25 37 -13 20 14 -16 27 2 25 28 -2 40 -43 11 -153 -52 -201 -90 -67 -147 -75 -195 -24 -50 53 -68 100 -64 170 1 25 58 77 82 77 19 0 19 -1 -1 -22 -23 -25 -22 -41 5 -46 11 -3 15 0 10 8 -4 7 5 24 21 41 30 31 68 38 107 18z"/>
<path d="M3459 3950 c-42 -12 -69 -30 -69 -45 0 -8 6 -15 14 -15 7 0 19 -6 25 -14 9 -10 -3 -24 -59 -65 -39 -29 -112 -76 -163 -105 -184 -104 -623 -374 -681 -419 -27 -20 -55 -37 -62 -37 -8 0 -14 -4 -14 -10 0 -25 45 -7 120 48 25 19 99 65 165 104 66 39 145 88 176 109 30 20 71 46 90 57 19 11 95 54 169 97 74 42 164 98 200 125 88 65 180 122 180 113 0 -5 -16 -30 -35 -57 -36 -51 -42 -66 -26 -66 17 0 91 112 91 136 0 35 -67 60 -121 44z m55 -30 c-6 -6 -28 -13 -50 -16 -37 -5 -38 -4 -20 10 22 18 87 23 70 6z"/>
<path d="M3890 3831 c0 -10 42 -66 162 -213 37 -46 127 -166 199 -268 72 -101 150 -201 174 -222 23 -21 82 -88 129 -150 47 -62 109 -140 136 -173 65 -78 77 -97 53 -88 -35 12 -73 45 -88 74 -17 32 -35 38 -35 12 0 -29 91 -107 139 -120 41 -10 46 -9 70 13 21 20 26 33 26 76 0 69 -19 79 -23 13 -3 -46 -15 -75 -31 -75 -4 0 -27 28 -51 61 -25 34 -66 85 -91 113 -25 28 -63 76 -84 106 -22 30 -76 93 -120 140 -45 47 -101 114 -125 150 -24 36 -69 99 -99 140 -31 41 -65 89 -75 105 -22 34 -178 227 -213 264 -13 13 -23 30 -23 37 0 8 -7 14 -15 14 -8 0 -15 -4 -15 -9z"/>
<path d="M7250 3580 c0 -13 19 -17 190 -35 80 -9 179 -20 220 -25 41 -6 113 -15 160 -20 47 -5 119 -14 160 -20 191 -25 337 -42 475 -55 83 -8 202 -20 267 -26 142 -14 162 -10 119 27 -30 25 -43 74 -20 74 19 0 81 -69 77 -86 -5 -28 -50 -53 -113 -65 -33 -6 -70 -13 -83 -15 -13 -3 -20 -9 -16 -16 14 -22 178 15 217 50 45 40 -7 135 -89 162 -40 14 -50 9 -36 -17 5 -10 12 -35 15 -56 l6 -38 -72 6 c-187 15 -308 26 -377 35 -41 5 -115 14 -165 20 -49 6 -125 15 -167 20 -43 6 -115 15 -160 20 -46 6 -114 15 -153 20 -274 37 -455 53 -455 40z"/>
<path d="M9070 3432 c-26 -27 -30 -38 -30 -86 0 -47 4 -60 30 -90 34 -38 88 -61 121 -51 54 18 99 89 99 157 0 51 -19 68 -90 79 -25 4 -57 11 -72 14 -22 6 -33 1 -58 -23z m105 -32 c18 -20 30 -19 30 3 0 14 34 10 53 -5 33 -28 0 -117 -60 -161 l-26 -20 -43 24 c-49 27 -76 80 -65 125 4 14 10 24 13 21 3 -4 17 3 31 13 31 25 44 25 67 0z"/>
<path d="M8870 3224 c-14 -2 -40 -7 -57 -10 -21 -3 -33 -11 -33 -20 0 -10 6 -14 18 -10 9 3 51 7 92 11 74 5 75 5 50 -12 -158 -113 -253 -196 -450 -393 -124 -124 -272 -268 -330 -320 -146 -131 -290 -267 -290 -274 0 -23 41 6 112 77 46 46 124 117 173 159 50 41 203 187 340 324 138 137 274 267 304 289 29 22 58 45 65 50 19 18 74 55 80 55 10 0 -43 -91 -67 -117 -24 -26 -18 -40 10 -23 17 11 35 37 70 99 7 13 23 41 35 62 12 21 19 41 16 45 -8 7 -107 13 -138 8z"/>
<path d="M2192 3180 c-53 -38 -91 -98 -98 -154 -11 -75 -1 -91 71 -127 61 -30 66 -31 107 -18 33 11 50 25 75 62 49 73 59 116 43 183 -16 64 -42 84 -113 84 -33 0 -54 -7 -85 -30z m160 -47 c56 -51 -28 -233 -108 -233 -31 0 -106 33 -124 55 -25 30 8 145 42 145 10 0 18 4 18 10 0 35 138 54 172 23z"/>
<path d="M2560 3000 c0 -6 6 -12 13 -14 6 -2 73 -18 147 -36 143 -34 151 -36 470 -136 113 -35 237 -73 275 -85 39 -12 81 -25 95 -30 23 -7 238 -62 375 -95 33 -8 96 -26 140 -40 44 -14 107 -27 140 -29 33 -3 89 -13 125 -24 36 -10 91 -24 123 -30 32 -5 72 -17 89 -26 17 -8 39 -15 49 -15 10 0 20 -4 24 -9 7 -12 -73 -25 -120 -19 -28 3 -35 1 -35 -13 0 -14 9 -16 72 -12 40 2 86 10 102 18 16 8 30 15 30 15 1 0 3 -11 4 -26 5 -61 69 -117 135 -117 52 0 89 19 146 74 119 115 104 236 -30 253 -90 11 -169 -12 -169 -50 0 -13 -4 -24 -9 -24 -6 0 -24 -20 -42 -45 l-33 -46 -17 33 c-18 35 -80 108 -92 108 -16 0 -5 -25 28 -61 33 -37 44 -59 28 -59 -5 0 -46 14 -93 30 -47 16 -97 30 -111 30 -14 0 -48 7 -75 16 -27 8 -85 19 -129 24 -44 4 -107 17 -140 29 -33 11 -139 40 -235 65 -314 80 -349 90 -665 191 -226 72 -368 113 -502 144 -106 24 -113 25 -113 11z m2441 -452 c14 -21 10 -78 -7 -114 -21 -45 -106 -121 -144 -129 -70 -15 -150 38 -150 100 0 39 46 96 107 132 40 23 49 25 76 15 34 -13 47 -8 29 10 -7 7 -12 15 -12 20 0 11 92 -19 101 -34z"/>
<path d="M5303 2376 c2 -6 39 -17 83 -23 43 -7 140 -22 214 -34 74 -11 149 -25 165 -30 33 -9 177 -36 270 -49 33 -5 132 -22 220 -38 88 -17 201 -36 250 -42 50 -7 128 -19 175 -27 104 -19 240 -31 423 -39 75 -4 137 -10 137 -14 0 -12 -40 -20 -107 -20 -49 0 -63 -3 -63 -15 0 -11 11 -15 38 -15 58 0 150 19 185 39 52 29 47 55 -22 122 -56 55 -81 70 -81 51 0 -5 28 -37 62 -71 49 -49 59 -64 48 -71 -10 -6 -20 -4 -32 6 -9 9 -21 13 -27 10 -6 -4 -81 -2 -168 4 -221 16 -260 19 -328 30 -33 5 -125 19 -205 30 -80 11 -176 27 -215 34 -38 8 -128 24 -200 36 -110 18 -260 45 -500 90 -27 5 -84 14 -125 20 -178 25 -201 27 -197 16z"/>
<path d="M4378 2338 c-47 -16 -31 -28 36 -28 36 0 67 -4 70 -8 2 -4 -16 -14 -42 -21 -87 -25 -442 -193 -547 -258 -33 -21 -98 -56 -145 -78 -47 -22 -114 -57 -150 -79 -36 -21 -103 -59 -150 -84 -47 -25 -99 -55 -116 -66 -117 -78 -175 -116 -178 -116 -2 0 -33 -18 -70 -40 -36 -22 -141 -78 -233 -125 -160 -82 -203 -108 -192 -119 6 -6 352 171 437 222 29 18 56 32 60 33 4 0 45 27 92 59 47 32 128 82 180 111 52 28 127 71 165 94 39 23 122 67 185 97 63 31 133 69 155 84 37 25 248 134 261 134 3 0 48 20 100 45 51 25 100 45 106 45 7 0 39 11 71 24 31 13 57 20 57 15 0 -19 -43 -79 -61 -84 -18 -6 -28 -35 -11 -35 48 0 130 142 101 176 -14 17 -138 18 -181 2z"/>
<path d="M7519 2081 c-13 -10 -34 -21 -46 -25 -12 -4 -34 -21 -48 -37 -71 -85 12 -269 122 -269 60 0 140 55 199 134 24 33 29 48 29 103 0 59 -3 67 -28 89 -25 21 -37 24 -116 24 -71 0 -93 -4 -112 -19z m166 -8 c42 -5 49 -10 61 -40 31 -73 -35 -187 -137 -238 -58 -30 -71 -31 -111 -7 -56 31 -97 161 -65 203 17 23 63 51 79 48 7 -1 21 1 30 5 19 9 88 3 128 -10 23 -7 24 -6 11 9 -7 10 -28 21 -45 26 -38 11 -15 13 49 4z"/>
<path d="M7148 1914 c-18 -17 -6 -25 35 -23 88 6 137 0 137 -16 0 -8 -6 -15 -14 -15 -8 0 -77 -31 -153 -69 -76 -38 -172 -83 -213 -101 -41 -18 -86 -40 -100 -49 -14 -10 -70 -37 -125 -62 -55 -24 -163 -77 -240 -117 -77 -40 -214 -109 -305 -153 -256 -125 -478 -237 -553 -281 -37 -21 -116 -61 -175 -87 -160 -72 -280 -132 -294 -148 -8 -10 -8 -17 0 -25 9 -9 12 -9 12 -1 0 11 151 89 300 155 41 18 161 79 265 135 105 55 255 132 335 169 80 38 192 93 250 123 203 105 447 225 785 387 199 95 187 92 137 41 -63 -64 -37 -65 35 -2 65 58 94 108 75 127 -14 14 -183 24 -194 12z"/>
<path d="M7800 1792 c0 -4 33 -27 73 -52 124 -76 229 -151 297 -210 36 -31 110 -92 165 -135 55 -43 121 -97 146 -119 26 -23 83 -67 127 -100 44 -32 100 -78 123 -102 51 -52 43 -55 -69 -25 -40 10 -74 15 -77 11 -10 -16 40 -33 145 -49 67 -10 95 -1 104 34 13 52 -34 155 -70 155 -12 0 -15 -10 -13 -42 2 -24 -1 -45 -5 -46 -4 -2 -35 18 -69 45 -34 26 -82 64 -108 83 -26 19 -125 98 -219 175 -255 209 -258 211 -350 273 -142 96 -200 127 -200 104z m994 -656 c9 -19 16 -49 16 -67 0 -31 -1 -32 -16 -17 -9 9 -18 28 -19 41 -2 14 -6 40 -10 57 -9 41 7 33 29 -14z"/>
<path d="M7127 1574 c-13 -14 -7 -36 18 -66 14 -16 25 -35 25 -43 0 -11 -166 -115 -185 -115 -3 0 -50 -21 -103 -46 -53 -25 -115 -53 -137 -62 -22 -9 -67 -30 -100 -48 -54 -28 -319 -144 -330 -144 -2 0 -82 -38 -177 -84 -208 -101 -254 -121 -335 -152 -35 -13 -71 -28 -80 -34 -10 -5 -79 -38 -153 -74 -74 -36 -160 -79 -190 -96 -30 -17 -103 -56 -162 -86 -80 -41 -108 -61 -108 -75 0 -21 11 -24 38 -11 9 5 40 20 67 33 28 13 100 51 160 84 153 84 343 176 445 215 30 11 64 24 75 29 11 5 49 21 85 36 36 15 133 60 216 101 84 41 158 74 166 74 8 0 18 4 24 8 5 5 36 19 69 32 33 13 110 47 170 76 253 121 368 174 375 174 5 0 50 24 102 54 51 30 97 52 101 49 5 -3 22 -34 38 -69 21 -49 33 -64 49 -64 23 0 30 14 66 135 26 87 30 130 14 140 -6 4 -48 11 -93 16 -45 5 -96 11 -112 15 -17 3 -33 2 -38 -2z"/>
<path d="M1726 1210 c-28 -43 -43 -51 -42 -22 1 27 -19 25 -22 -3 -4 -29 -11 -31 -38 -10 -21 16 -54 20 -54 7 0 -5 18 -19 41 -31 22 -13 38 -25 36 -27 -2 -3 -24 -8 -48 -12 -51 -9 -54 -28 -3 -25 l34 2 -15 -30 c-18 -34 -17 -70 3 -77 8 -2 12 8 12 31 0 19 6 40 14 47 12 9 16 5 21 -27 9 -54 14 -65 23 -59 5 3 7 30 4 61 -2 30 -2 55 2 55 6 0 46 -32 79 -63 13 -13 22 -16 29 -9 7 7 2 19 -18 36 -16 14 -33 26 -37 26 -5 0 -5 5 -2 10 3 6 17 7 30 4 13 -3 29 -3 35 1 20 13 -11 25 -62 25 -27 0 -48 3 -48 6 0 4 16 29 35 55 19 27 35 54 35 59 0 21 -18 8 -44 -30z"/>
<path d="M2225 1217 c-45 -24 -69 -46 -97 -87 -43 -63 -48 -105 -18 -143 90 -115 285 -43 298 110 4 49 2 55 -31 88 -39 39 -22 50 23 15 28 -22 54 -26 48 -7 -6 20 -89 57 -128 57 -20 0 -61 -14 -95 -33z m121 -35 c66 -53 54 -133 -30 -197 -58 -44 -166 -30 -196 26 -21 38 18 109 94 167 35 27 101 29 132 4z"/>
<path d="M2485 1060 c-8 -12 -5 -13 135 -45 313 -71 453 -111 740 -210 175 -60 359 -115 450 -134 122 -25 210 -41 315 -56 61 -9 146 -25 189 -36 58 -15 97 -19 145 -15 45 4 60 3 46 -3 -11 -5 -28 -10 -37 -10 -32 -2 -72 -21 -62 -31 12 -12 113 11 162 36 40 21 42 51 5 87 -32 30 -99 61 -107 49 -3 -5 4 -26 15 -46 11 -21 18 -40 16 -43 -12 -12 -122 -14 -164 -4 -27 7 -64 16 -83 21 -19 5 -98 18 -175 29 -251 38 -506 104 -730 188 -174 66 -587 179 -737 203 -37 6 -79 15 -92 20 -16 6 -27 6 -31 0z m2083 -463 c-5 -33 -22 -29 -40 9 -26 50 -22 58 13 34 20 -15 29 -29 27 -43z"/>
<path d="M9073 1019 c-61 -30 -106 -84 -98 -118 14 -58 57 -132 87 -147 84 -43 238 61 238 161 0 43 -27 93 -59 109 -43 22 -118 20 -168 -5z m175 -35 c49 -56 16 -151 -68 -194 -61 -31 -104 -27 -134 13 -42 55 -43 88 -7 130 30 34 77 54 111 48 8 -1 25 -12 37 -24 13 -11 26 -18 29 -14 10 10 -23 50 -53 64 -27 13 -26 13 17 8 31 -4 52 -13 68 -31z"/>
<path d="M4752 719 c-60 -30 -87 -72 -87 -136 0 -61 31 -103 75 -103 39 0 115 55 151 108 25 37 30 53 25 81 -7 46 -25 62 -77 68 -32 3 -56 -2 -87 -18z m128 -34 c22 -27 -4 -88 -57 -135 -39 -34 -53 -40 -82 -38 -30 3 -37 8 -49 40 -20 53 -3 93 52 117 73 34 117 38 136 16z"/>
</g>
<g transform="translate(0.000000,432.000000) scale(0.100000,-0.100000)" fill="#9F9F9F" stroke="none">
<path d="M9077 2992 c-21 -23 -21 -31 -3 -51 16 -19 31 -91 18 -91 -5 0 -29 -17 -53 -39 -24 -21 -93 -69 -154 -106 -60 -37 -141 -93 -180 -124 -124 -101 -188 -146 -305 -216 -63 -39 -144 -92 -180 -119 -36 -27 -95 -69 -132 -93 -38 -24 -68 -48 -68 -54 0 -36 87 -1 174 71 25 21 74 55 109 75 149 86 241 145 326 210 183 140 247 186 316 227 39 22 91 58 116 80 26 21 52 38 58 38 7 0 24 -25 38 -56 31 -67 49 -77 78 -41 21 27 85 191 85 220 0 19 -12 23 -84 32 -38 5 -67 15 -86 31 -34 29 -51 30 -73 6z"/>
<path d="M5284 2149 c-13 -21 15 -30 152 -49 212 -30 262 -38 349 -61 374 -98 593 -140 820 -159 61 -5 124 -12 142 -15 32 -6 32 -6 26 -55 -5 -40 -3 -51 11 -56 9 -3 22 -1 30 5 7 6 20 9 28 6 19 -7 105 51 114 77 4 15 -3 29 -30 56 -20 19 -44 48 -53 63 -9 16 -22 30 -29 33 -17 6 -54 -31 -54 -54 0 -15 -7 -20 -28 -20 -46 0 -242 19 -302 30 -30 5 -93 14 -140 21 -81 11 -194 32 -270 50 -19 4 -55 13 -80 18 -25 6 -79 19 -120 30 -85 24 -182 44 -285 60 -232 35 -270 38 -281 20z"/>
<path d="M4166 2073 c-12 -13 -6 -59 13 -89 l19 -32 -41 -30 c-23 -16 -55 -36 -72 -45 -16 -9 -41 -26 -55 -39 -14 -13 -56 -39 -94 -58 -38 -19 -88 -52 -112 -73 -24 -21 -94 -63 -156 -94 -62 -31 -151 -80 -198 -108 -138 -83 -317 -183 -441 -244 -31 -16 -33 -34 -5 -39 26 -5 230 101 496 258 52 31 139 77 193 103 54 26 116 62 138 80 22 19 69 49 106 68 37 19 81 45 97 59 16 13 63 46 105 71 81 50 93 50 112 2 14 -37 36 -27 79 37 36 53 41 66 38 107 -3 40 -6 48 -28 53 -38 10 -187 20 -194 13z"/>
<path d="M7127 1574 c-13 -14 -7 -36 18 -66 14 -16 25 -35 25 -43 0 -11 -166 -115 -185 -115 -3 0 -50 -21 -103 -46 -53 -25 -115 -53 -137 -62 -22 -9 -67 -30 -100 -48 -54 -28 -319 -144 -330 -144 -2 0 -82 -38 -177 -84 -208 -101 -254 -121 -335 -152 -35 -13 -71 -28 -80 -34 -10 -5 -79 -38 -153 -74 -74 -36 -160 -79 -190 -96 -30 -17 -103 -56 -162 -86 -80 -41 -108 -61 -108 -75 0 -21 11 -24 38 -11 9 5 40 20 67 33 28 13 100 51 160 84 153 84 343 176 445 215 30 11 64 24 75 29 11 5 49 21 85 36 36 15 133 60 216 101 84 41 158 74 166 74 8 0 18 4 24 8 5 5 36 19 69 32 33 13 110 47 170 76 253 121 368 174 375 174 5 0 50 24 102 54 51 30 97 52 101 49 5 -3 22 -34 38 -69 21 -49 33 -64 49 -64 23 0 30 14 66 135 26 87 30 130 14 140 -6 4 -48 11 -93 16 -45 5 -96 11 -112 15 -17 3 -33 2 -38 -2z"/>
<path d="M7795 1579 c-13 -21 46 -88 197 -225 177 -161 324 -306 388 -384 25 -30 70 -82 101 -115 88 -95 129 -142 129 -149 0 -4 -13 -21 -30 -38 -49 -49 -41 -69 38 -97 150 -52 162 -45 162 83 0 50 -3 108 -7 129 -6 42 -29 59 -47 35 -6 -8 -24 -30 -40 -48 l-28 -34 -26 29 c-13 17 -59 68 -102 115 -42 47 -104 117 -137 155 -69 80 -251 258 -368 360 -44 38 -108 97 -143 132 -64 64 -76 71 -87 52z"/><path d="M2667 804 c-3 -3 -3 -12 0 -20 3 -8 0 -14 -6 -14 -6 0 -11 -7 -11 -15 0 -15 9 -18 107 -35 62 -11 193 -48 268 -77 22 -8 60 -21 85 -29 25 -8 54 -19 65 -23 11 -5 69 -26 129 -46 94 -32 197 -79 231 -106 6 -4 57 -23 115 -42 58 -19 143 -49 190 -67 47 -17 110 -40 140 -51 30 -11 68 -25 83 -31 23 -8 27 -15 23 -32 -26 -89 -16 -96 74 -53 36 16 85 32 108 35 52 6 62 24 39 64 -9 17 -17 39 -17 51 -1 31 -26 61 -45 53 -9 -3 -24 -1 -34 6 -28 17 -47 4 -70 -48 -16 -34 -24 -44 -33 -37 -17 14 -115 47 -213 73 -44 12 -163 61 -265 110 -102 48 -246 109 -320 134 -74 25 -169 57 -210 72 -202 71 -302 103 -339 109 -22 4 -43 11 -47 16 -6 10 -37 12 -47 3z"/>
</g>
</svg>